<svg xmlns="http://www.w3.org/2000/svg" xmlns:xlink="http://www.w3.org/1999/xlink" width="1800" zoomAndPan="magnify" viewBox="0 0 1350 809.999993" height="1080" preserveAspectRatio="xMidYMid meet" version="1.0"><defs><g><g id="id1"/><g id="id2"/></g><clipPath id="id3"><path d="M 759 90.441406 L 1299 90.441406 L 1299 320 L 759 320 Z M 759 90.441406 " clip-rule="nonzero"/></clipPath><clipPath id="id4"><path d="M 1062 236 L 1236 236 L 1236 535.683594 L 1062 535.683594 Z M 1062 236 " clip-rule="nonzero"/></clipPath></defs><path fill="rgb(18.429565%, 21.179199%, 46.269226%)" d="M -905.046875 485.40625 C -719.929688 519.253906 -532.171875 547.28125 -343.355469 531.414062 C -160.882812 516.078125 7.304688 427.765625 190.835938 421.417969 C 377.007812 415.070312 563.710938 447.859375 744.0625 489.636719 C 1047.125 559.445312 1287.246094 473.773438 1439.039062 385.457031 L 1439.039062 -1458.066406 L -1205.460938 -1458.066406 L -1205.460938 423.003906 C -1106.558594 448.917969 -1004.480469 467.425781 -905.046875 485.40625 " fill-opacity="1" fill-rule="nonzero"/><g fill="rgb(100%, 100%, 100%)" fill-opacity="1"><g transform="translate(81.000002, 127.601812)"><g><path d="M 28.6875 -43.78125 L 28.6875 -40.15625 L 9.390625 -40.15625 L 9.390625 -23.796875 L 25.6875 -23.796875 L 25.6875 -20.171875 L 9.390625 -20.171875 L 9.390625 0 L 5.015625 0 L 5.015625 -43.78125 Z M 28.6875 -43.78125 "/></g></g></g><g fill="rgb(100%, 100%, 100%)" fill-opacity="1"><g transform="translate(111.879914, 127.601812)"><g><path d="M 19.984375 0.5 C 16.765625 0.5 13.867188 -0.21875 11.296875 -1.65625 C 8.734375 -3.101562 6.707031 -5.148438 5.21875 -7.796875 C 3.738281 -10.453125 3 -13.550781 3 -17.09375 C 3 -20.644531 3.75 -23.742188 5.25 -26.390625 C 6.757812 -29.046875 8.804688 -31.09375 11.390625 -32.53125 C 13.984375 -33.976562 16.890625 -34.703125 20.109375 -34.703125 C 23.328125 -34.703125 26.238281 -33.976562 28.84375 -32.53125 C 31.457031 -31.09375 33.503906 -29.046875 34.984375 -26.390625 C 36.460938 -23.742188 37.203125 -20.644531 37.203125 -17.09375 C 37.203125 -13.59375 36.453125 -10.503906 34.953125 -7.828125 C 33.453125 -5.160156 31.382812 -3.101562 28.75 -1.65625 C 26.125 -0.21875 23.203125 0.5 19.984375 0.5 Z M 19.984375 -3.3125 C 22.234375 -3.3125 24.316406 -3.820312 26.234375 -4.84375 C 28.160156 -5.875 29.71875 -7.421875 30.90625 -9.484375 C 32.101562 -11.554688 32.703125 -14.09375 32.703125 -17.09375 C 32.703125 -20.101562 32.113281 -22.640625 30.9375 -24.703125 C 29.769531 -26.773438 28.222656 -28.320312 26.296875 -29.34375 C 24.378906 -30.363281 22.296875 -30.875 20.046875 -30.875 C 17.785156 -30.875 15.695312 -30.363281 13.78125 -29.34375 C 11.863281 -28.320312 10.328125 -26.773438 9.171875 -24.703125 C 8.023438 -22.640625 7.453125 -20.101562 7.453125 -17.09375 C 7.453125 -14.09375 8.023438 -11.554688 9.171875 -9.484375 C 10.328125 -7.421875 11.851562 -5.875 13.75 -4.84375 C 15.644531 -3.820312 17.722656 -3.3125 19.984375 -3.3125 Z M 19.984375 -3.3125 "/></g></g></g><g fill="rgb(100%, 100%, 100%)" fill-opacity="1"><g transform="translate(152.092699, 127.601812)"><g><path d="M 9.390625 -28.125 C 10.359375 -30.257812 11.832031 -31.910156 13.8125 -33.078125 C 15.789062 -34.242188 18.222656 -34.828125 21.109375 -34.828125 L 21.109375 -30.25 L 19.921875 -30.25 C 16.742188 -30.25 14.191406 -29.394531 12.265625 -27.6875 C 10.347656 -25.976562 9.390625 -23.117188 9.390625 -19.109375 L 9.390625 0 L 5.015625 0 L 5.015625 -34.203125 L 9.390625 -34.203125 Z M 9.390625 -28.125 "/></g></g></g><g fill="rgb(100%, 100%, 100%)" fill-opacity="1"><g transform="translate(174.767198, 127.601812)"><g><path d="M 45.734375 -34.828125 C 49.734375 -34.828125 53 -33.5625 55.53125 -31.03125 C 58.0625 -28.507812 59.328125 -24.847656 59.328125 -20.046875 L 59.328125 0 L 55 0 L 55 -19.546875 C 55 -23.265625 54.097656 -26.101562 52.296875 -28.0625 C 50.503906 -30.019531 48.0625 -31 44.96875 -31 C 41.757812 -31 39.191406 -29.9375 37.265625 -27.8125 C 35.347656 -25.6875 34.390625 -22.597656 34.390625 -18.546875 L 34.390625 0 L 30.0625 0 L 30.0625 -19.546875 C 30.0625 -23.265625 29.164062 -26.101562 27.375 -28.0625 C 25.582031 -30.019531 23.117188 -31 19.984375 -31 C 16.765625 -31 14.191406 -29.9375 12.265625 -27.8125 C 10.347656 -25.6875 9.390625 -22.597656 9.390625 -18.546875 L 9.390625 0 L 5.015625 0 L 5.015625 -34.203125 L 9.390625 -34.203125 L 9.390625 -28.3125 C 10.484375 -30.445312 12.03125 -32.066406 14.03125 -33.171875 C 16.03125 -34.273438 18.265625 -34.828125 20.734375 -34.828125 C 23.703125 -34.828125 26.300781 -34.113281 28.53125 -32.6875 C 30.769531 -31.269531 32.390625 -29.1875 33.390625 -26.4375 C 34.304688 -29.144531 35.878906 -31.21875 38.109375 -32.65625 C 40.347656 -34.101562 42.890625 -34.828125 45.734375 -34.828125 Z M 45.734375 -34.828125 "/></g></g></g><g fill="rgb(100%, 100%, 100%)" fill-opacity="1"><g transform="translate(238.781931, 127.601812)"><g><path d="M 34.640625 -34.203125 L 34.640625 0 L 30.25 0 L 30.25 -6.015625 C 29.25 -3.878906 27.703125 -2.25 25.609375 -1.125 C 23.523438 0 21.191406 0.5625 18.609375 0.5625 C 14.515625 0.5625 11.171875 -0.695312 8.578125 -3.21875 C 5.992188 -5.75 4.703125 -9.414062 4.703125 -14.21875 L 4.703125 -34.203125 L 9.015625 -34.203125 L 9.015625 -14.71875 C 9.015625 -11 9.941406 -8.15625 11.796875 -6.1875 C 13.660156 -4.226562 16.203125 -3.25 19.421875 -3.25 C 22.722656 -3.25 25.351562 -4.289062 27.3125 -6.375 C 29.269531 -8.46875 30.25 -11.539062 30.25 -15.59375 L 30.25 -34.203125 Z M 34.640625 -34.203125 "/></g></g></g><g fill="rgb(100%, 100%, 100%)" fill-opacity="1"><g transform="translate(278.430992, 127.601812)"><g><path d="M 9.390625 -46.359375 L 9.390625 0 L 5.015625 0 L 5.015625 -46.359375 Z M 9.390625 -46.359375 "/></g></g></g><g fill="rgb(100%, 100%, 100%)" fill-opacity="1"><g transform="translate(292.774787, 127.601812)"><g><path d="M 3 -17.15625 C 3 -20.664062 3.695312 -23.742188 5.09375 -26.390625 C 6.5 -29.046875 8.441406 -31.09375 10.921875 -32.53125 C 13.410156 -33.976562 16.222656 -34.703125 19.359375 -34.703125 C 22.609375 -34.703125 25.414062 -33.945312 27.78125 -32.4375 C 30.144531 -30.9375 31.847656 -29.019531 32.890625 -26.6875 L 32.890625 -34.203125 L 37.265625 -34.203125 L 37.265625 0 L 32.890625 0 L 32.890625 -7.578125 C 31.796875 -5.242188 30.066406 -3.3125 27.703125 -1.78125 C 25.347656 -0.257812 22.546875 0.5 19.296875 0.5 C 16.203125 0.5 13.410156 -0.226562 10.921875 -1.6875 C 8.441406 -3.15625 6.5 -5.222656 5.09375 -7.890625 C 3.695312 -10.566406 3 -13.65625 3 -17.15625 Z M 32.890625 -17.09375 C 32.890625 -19.851562 32.320312 -22.273438 31.1875 -24.359375 C 30.0625 -26.453125 28.523438 -28.0625 26.578125 -29.1875 C 24.640625 -30.3125 22.503906 -30.875 20.171875 -30.875 C 17.742188 -30.875 15.570312 -30.332031 13.65625 -29.25 C 11.738281 -28.164062 10.222656 -26.585938 9.109375 -24.515625 C 8.003906 -22.453125 7.453125 -20 7.453125 -17.15625 C 7.453125 -14.363281 8.003906 -11.910156 9.109375 -9.796875 C 10.222656 -7.691406 11.738281 -6.082031 13.65625 -4.96875 C 15.570312 -3.863281 17.742188 -3.3125 20.171875 -3.3125 C 22.503906 -3.3125 24.640625 -3.875 26.578125 -5 C 28.523438 -6.132812 30.0625 -7.742188 31.1875 -9.828125 C 32.320312 -11.921875 32.890625 -14.34375 32.890625 -17.09375 Z M 27 -44.28125 L 14.15625 -36.828125 L 14.15625 -40.21875 L 27 -48.234375 Z M 27 -44.28125 "/></g></g></g><g fill="rgb(100%, 100%, 100%)" fill-opacity="1"><g transform="translate(335.05457, 127.601812)"><g><path d="M 9.390625 -28.125 C 10.359375 -30.257812 11.832031 -31.910156 13.8125 -33.078125 C 15.789062 -34.242188 18.222656 -34.828125 21.109375 -34.828125 L 21.109375 -30.25 L 19.921875 -30.25 C 16.742188 -30.25 14.191406 -29.394531 12.265625 -27.6875 C 10.347656 -25.976562 9.390625 -23.117188 9.390625 -19.109375 L 9.390625 0 L 5.015625 0 L 5.015625 -34.203125 L 9.390625 -34.203125 Z M 9.390625 -28.125 "/></g></g></g><g fill="rgb(100%, 100%, 100%)" fill-opacity="1"><g transform="translate(357.729068, 127.601812)"><g><path d="M 7.203125 -40.65625 C 6.328125 -40.65625 5.578125 -40.96875 4.953125 -41.59375 C 4.328125 -42.21875 4.015625 -42.988281 4.015625 -43.90625 C 4.015625 -44.832031 4.328125 -45.597656 4.953125 -46.203125 C 5.578125 -46.804688 6.328125 -47.109375 7.203125 -47.109375 C 8.078125 -47.109375 8.828125 -46.804688 9.453125 -46.203125 C 10.078125 -45.597656 10.390625 -44.832031 10.390625 -43.90625 C 10.390625 -42.988281 10.078125 -42.21875 9.453125 -41.59375 C 8.828125 -40.96875 8.078125 -40.65625 7.203125 -40.65625 Z M 9.390625 -34.203125 L 9.390625 0 L 5.015625 0 L 5.015625 -34.203125 Z M 9.390625 -34.203125 "/></g></g></g><g fill="rgb(100%, 100%, 100%)" fill-opacity="1"><g transform="translate(372.072863, 127.601812)"><g><path d="M 19.984375 0.5 C 16.765625 0.5 13.867188 -0.21875 11.296875 -1.65625 C 8.734375 -3.101562 6.707031 -5.148438 5.21875 -7.796875 C 3.738281 -10.453125 3 -13.550781 3 -17.09375 C 3 -20.644531 3.75 -23.742188 5.25 -26.390625 C 6.757812 -29.046875 8.804688 -31.09375 11.390625 -32.53125 C 13.984375 -33.976562 16.890625 -34.703125 20.109375 -34.703125 C 23.328125 -34.703125 26.238281 -33.976562 28.84375 -32.53125 C 31.457031 -31.09375 33.503906 -29.046875 34.984375 -26.390625 C 36.460938 -23.742188 37.203125 -20.644531 37.203125 -17.09375 C 37.203125 -13.59375 36.453125 -10.503906 34.953125 -7.828125 C 33.453125 -5.160156 31.382812 -3.101562 28.75 -1.65625 C 26.125 -0.21875 23.203125 0.5 19.984375 0.5 Z M 19.984375 -3.3125 C 22.234375 -3.3125 24.316406 -3.820312 26.234375 -4.84375 C 28.160156 -5.875 29.71875 -7.421875 30.90625 -9.484375 C 32.101562 -11.554688 32.703125 -14.09375 32.703125 -17.09375 C 32.703125 -20.101562 32.113281 -22.640625 30.9375 -24.703125 C 29.769531 -26.773438 28.222656 -28.320312 26.296875 -29.34375 C 24.378906 -30.363281 22.296875 -30.875 20.046875 -30.875 C 17.785156 -30.875 15.695312 -30.363281 13.78125 -29.34375 C 11.863281 -28.320312 10.328125 -26.773438 9.171875 -24.703125 C 8.023438 -22.640625 7.453125 -20.101562 7.453125 -17.09375 C 7.453125 -14.09375 8.023438 -11.554688 9.171875 -9.484375 C 10.328125 -7.421875 11.851562 -5.875 13.75 -4.84375 C 15.644531 -3.820312 17.722656 -3.3125 19.984375 -3.3125 Z M 19.984375 -3.3125 "/></g></g></g><g fill="rgb(100%, 100%, 100%)" fill-opacity="1"><g transform="translate(412.277333, 127.601812)"><g/></g></g><g fill="rgb(100%, 100%, 100%)" fill-opacity="1"><g transform="translate(81.000002, 207.851808)"><g><path d="M 9.328125 -26.6875 C 10.421875 -28.976562 12.144531 -30.882812 14.5 -32.40625 C 16.863281 -33.9375 19.671875 -34.703125 22.921875 -34.703125 C 26.015625 -34.703125 28.800781 -33.976562 31.28125 -32.53125 C 33.769531 -31.09375 35.710938 -29.046875 37.109375 -26.390625 C 38.515625 -23.742188 39.21875 -20.664062 39.21875 -17.15625 C 39.21875 -13.65625 38.515625 -10.566406 37.109375 -7.890625 C 35.710938 -5.222656 33.769531 -3.15625 31.28125 -1.6875 C 28.800781 -0.226562 26.015625 0.5 22.921875 0.5 C 19.710938 0.5 16.914062 -0.257812 14.53125 -1.78125 C 12.15625 -3.3125 10.421875 -5.222656 9.328125 -7.515625 L 9.328125 16.15625 L 5.015625 16.15625 L 5.015625 -34.203125 L 9.328125 -34.203125 Z M 34.765625 -17.15625 C 34.765625 -20 34.210938 -22.453125 33.109375 -24.515625 C 32.003906 -26.585938 30.488281 -28.164062 28.5625 -29.25 C 26.644531 -30.332031 24.472656 -30.875 22.046875 -30.875 C 19.710938 -30.875 17.570312 -30.3125 15.625 -29.1875 C 13.6875 -28.0625 12.148438 -26.453125 11.015625 -24.359375 C 9.890625 -22.273438 9.328125 -19.851562 9.328125 -17.09375 C 9.328125 -14.34375 9.890625 -11.921875 11.015625 -9.828125 C 12.148438 -7.742188 13.6875 -6.132812 15.625 -5 C 17.570312 -3.875 19.710938 -3.3125 22.046875 -3.3125 C 24.472656 -3.3125 26.644531 -3.863281 28.5625 -4.96875 C 30.488281 -6.082031 32.003906 -7.691406 33.109375 -9.796875 C 34.210938 -11.910156 34.765625 -14.363281 34.765625 -17.15625 Z M 34.765625 -17.15625 "/></g></g></g><g fill="rgb(100%, 100%, 100%)" fill-opacity="1"><g transform="translate(123.279796, 207.851808)"><g><path d="M 3 -17.15625 C 3 -20.664062 3.695312 -23.742188 5.09375 -26.390625 C 6.5 -29.046875 8.441406 -31.09375 10.921875 -32.53125 C 13.410156 -33.976562 16.222656 -34.703125 19.359375 -34.703125 C 22.609375 -34.703125 25.414062 -33.945312 27.78125 -32.4375 C 30.144531 -30.9375 31.847656 -29.019531 32.890625 -26.6875 L 32.890625 -34.203125 L 37.265625 -34.203125 L 37.265625 0 L 32.890625 0 L 32.890625 -7.578125 C 31.796875 -5.242188 30.066406 -3.3125 27.703125 -1.78125 C 25.347656 -0.257812 22.546875 0.5 19.296875 0.5 C 16.203125 0.5 13.410156 -0.226562 10.921875 -1.6875 C 8.441406 -3.15625 6.5 -5.222656 5.09375 -7.890625 C 3.695312 -10.566406 3 -13.65625 3 -17.15625 Z M 32.890625 -17.09375 C 32.890625 -19.851562 32.320312 -22.273438 31.1875 -24.359375 C 30.0625 -26.453125 28.523438 -28.0625 26.578125 -29.1875 C 24.640625 -30.3125 22.503906 -30.875 20.171875 -30.875 C 17.742188 -30.875 15.570312 -30.332031 13.65625 -29.25 C 11.738281 -28.164062 10.222656 -26.585938 9.109375 -24.515625 C 8.003906 -22.453125 7.453125 -20 7.453125 -17.15625 C 7.453125 -14.363281 8.003906 -11.910156 9.109375 -9.796875 C 10.222656 -7.691406 11.738281 -6.082031 13.65625 -4.96875 C 15.570312 -3.863281 17.742188 -3.3125 20.171875 -3.3125 C 22.503906 -3.3125 24.640625 -3.875 26.578125 -5 C 28.523438 -6.132812 30.0625 -7.742188 31.1875 -9.828125 C 32.320312 -11.921875 32.890625 -14.34375 32.890625 -17.09375 Z M 32.890625 -17.09375 "/></g></g></g><g fill="rgb(100%, 100%, 100%)" fill-opacity="1"><g transform="translate(165.559591, 207.851808)"><g><path d="M 9.390625 -28.125 C 10.359375 -30.257812 11.832031 -31.910156 13.8125 -33.078125 C 15.789062 -34.242188 18.222656 -34.828125 21.109375 -34.828125 L 21.109375 -30.25 L 19.921875 -30.25 C 16.742188 -30.25 14.191406 -29.394531 12.265625 -27.6875 C 10.347656 -25.976562 9.390625 -23.117188 9.390625 -19.109375 L 9.390625 0 L 5.015625 0 L 5.015625 -34.203125 L 9.390625 -34.203125 Z M 9.390625 -28.125 "/></g></g></g><g fill="rgb(100%, 100%, 100%)" fill-opacity="1"><g transform="translate(188.234089, 207.851808)"><g><path d="M 3 -17.15625 C 3 -20.664062 3.695312 -23.742188 5.09375 -26.390625 C 6.5 -29.046875 8.441406 -31.09375 10.921875 -32.53125 C 13.410156 -33.976562 16.222656 -34.703125 19.359375 -34.703125 C 22.609375 -34.703125 25.414062 -33.945312 27.78125 -32.4375 C 30.144531 -30.9375 31.847656 -29.019531 32.890625 -26.6875 L 32.890625 -34.203125 L 37.265625 -34.203125 L 37.265625 0 L 32.890625 0 L 32.890625 -7.578125 C 31.796875 -5.242188 30.066406 -3.3125 27.703125 -1.78125 C 25.347656 -0.257812 22.546875 0.5 19.296875 0.5 C 16.203125 0.5 13.410156 -0.226562 10.921875 -1.6875 C 8.441406 -3.15625 6.5 -5.222656 5.09375 -7.890625 C 3.695312 -10.566406 3 -13.65625 3 -17.15625 Z M 32.890625 -17.09375 C 32.890625 -19.851562 32.320312 -22.273438 31.1875 -24.359375 C 30.0625 -26.453125 28.523438 -28.0625 26.578125 -29.1875 C 24.640625 -30.3125 22.503906 -30.875 20.171875 -30.875 C 17.742188 -30.875 15.570312 -30.332031 13.65625 -29.25 C 11.738281 -28.164062 10.222656 -26.585938 9.109375 -24.515625 C 8.003906 -22.453125 7.453125 -20 7.453125 -17.15625 C 7.453125 -14.363281 8.003906 -11.910156 9.109375 -9.796875 C 10.222656 -7.691406 11.738281 -6.082031 13.65625 -4.96875 C 15.570312 -3.863281 17.742188 -3.3125 20.171875 -3.3125 C 22.503906 -3.3125 24.640625 -3.875 26.578125 -5 C 28.523438 -6.132812 30.0625 -7.742188 31.1875 -9.828125 C 32.320312 -11.921875 32.890625 -14.34375 32.890625 -17.09375 Z M 32.890625 -17.09375 "/></g></g></g><g fill="rgb(100%, 100%, 100%)" fill-opacity="1"><g transform="translate(230.513883, 207.851808)"><g/></g></g><g fill="rgb(100%, 100%, 100%)" fill-opacity="1"><g transform="translate(247.676347, 207.851808)"><g><path d="M 3 -17.15625 C 3 -20.664062 3.695312 -23.742188 5.09375 -26.390625 C 6.5 -29.046875 8.441406 -31.09375 10.921875 -32.53125 C 13.410156 -33.976562 16.222656 -34.703125 19.359375 -34.703125 C 22.609375 -34.703125 25.414062 -33.945312 27.78125 -32.4375 C 30.144531 -30.9375 31.847656 -29.019531 32.890625 -26.6875 L 32.890625 -34.203125 L 37.265625 -34.203125 L 37.265625 0 L 32.890625 0 L 32.890625 -7.578125 C 31.796875 -5.242188 30.066406 -3.3125 27.703125 -1.78125 C 25.347656 -0.257812 22.546875 0.5 19.296875 0.5 C 16.203125 0.5 13.410156 -0.226562 10.921875 -1.6875 C 8.441406 -3.15625 6.5 -5.222656 5.09375 -7.890625 C 3.695312 -10.566406 3 -13.65625 3 -17.15625 Z M 32.890625 -17.09375 C 32.890625 -19.851562 32.320312 -22.273438 31.1875 -24.359375 C 30.0625 -26.453125 28.523438 -28.0625 26.578125 -29.1875 C 24.640625 -30.3125 22.503906 -30.875 20.171875 -30.875 C 17.742188 -30.875 15.570312 -30.332031 13.65625 -29.25 C 11.738281 -28.164062 10.222656 -26.585938 9.109375 -24.515625 C 8.003906 -22.453125 7.453125 -20 7.453125 -17.15625 C 7.453125 -14.363281 8.003906 -11.910156 9.109375 -9.796875 C 10.222656 -7.691406 11.738281 -6.082031 13.65625 -4.96875 C 15.570312 -3.863281 17.742188 -3.3125 20.171875 -3.3125 C 22.503906 -3.3125 24.640625 -3.875 26.578125 -5 C 28.523438 -6.132812 30.0625 -7.742188 31.1875 -9.828125 C 32.320312 -11.921875 32.890625 -14.34375 32.890625 -17.09375 Z M 32.890625 -17.09375 "/></g></g></g><g fill="rgb(100%, 100%, 100%)" fill-opacity="1"><g transform="translate(289.956152, 207.851808)"><g/></g></g><g fill="rgb(100%, 100%, 100%)" fill-opacity="1"><g transform="translate(307.118627, 207.851808)"><g><path d="M 3 -17.09375 C 3 -20.644531 3.707031 -23.742188 5.125 -26.390625 C 6.550781 -29.046875 8.515625 -31.09375 11.015625 -32.53125 C 13.523438 -33.976562 16.390625 -34.703125 19.609375 -34.703125 C 23.828125 -34.703125 27.300781 -33.65625 30.03125 -31.5625 C 32.769531 -29.476562 34.535156 -26.640625 35.328125 -23.046875 L 30.625 -23.046875 C 30.039062 -25.515625 28.773438 -27.445312 26.828125 -28.84375 C 24.890625 -30.238281 22.484375 -30.9375 19.609375 -30.9375 C 17.304688 -30.9375 15.238281 -30.414062 13.40625 -29.375 C 11.570312 -28.332031 10.117188 -26.773438 9.046875 -24.703125 C 7.984375 -22.640625 7.453125 -20.101562 7.453125 -17.09375 C 7.453125 -14.09375 7.984375 -11.546875 9.046875 -9.453125 C 10.117188 -7.367188 11.570312 -5.800781 13.40625 -4.75 C 15.238281 -3.707031 17.304688 -3.1875 19.609375 -3.1875 C 22.484375 -3.1875 24.890625 -3.882812 26.828125 -5.28125 C 28.773438 -6.6875 30.039062 -8.644531 30.625 -11.15625 L 35.328125 -11.15625 C 34.535156 -7.644531 32.757812 -4.820312 30 -2.6875 C 27.25 -0.5625 23.785156 0.5 19.609375 0.5 C 16.390625 0.5 13.523438 -0.21875 11.015625 -1.65625 C 8.515625 -3.101562 6.550781 -5.148438 5.125 -7.796875 C 3.707031 -10.453125 3 -13.550781 3 -17.09375 Z M 3 -17.09375 "/></g></g></g><g fill="rgb(100%, 100%, 100%)" fill-opacity="1"><g transform="translate(345.514926, 207.851808)"><g><path d="M 19.984375 0.5 C 16.765625 0.5 13.867188 -0.21875 11.296875 -1.65625 C 8.734375 -3.101562 6.707031 -5.148438 5.21875 -7.796875 C 3.738281 -10.453125 3 -13.550781 3 -17.09375 C 3 -20.644531 3.75 -23.742188 5.25 -26.390625 C 6.757812 -29.046875 8.804688 -31.09375 11.390625 -32.53125 C 13.984375 -33.976562 16.890625 -34.703125 20.109375 -34.703125 C 23.328125 -34.703125 26.238281 -33.976562 28.84375 -32.53125 C 31.457031 -31.09375 33.503906 -29.046875 34.984375 -26.390625 C 36.460938 -23.742188 37.203125 -20.644531 37.203125 -17.09375 C 37.203125 -13.59375 36.453125 -10.503906 34.953125 -7.828125 C 33.453125 -5.160156 31.382812 -3.101562 28.75 -1.65625 C 26.125 -0.21875 23.203125 0.5 19.984375 0.5 Z M 19.984375 -3.3125 C 22.234375 -3.3125 24.316406 -3.820312 26.234375 -4.84375 C 28.160156 -5.875 29.71875 -7.421875 30.90625 -9.484375 C 32.101562 -11.554688 32.703125 -14.09375 32.703125 -17.09375 C 32.703125 -20.101562 32.113281 -22.640625 30.9375 -24.703125 C 29.769531 -26.773438 28.222656 -28.320312 26.296875 -29.34375 C 24.378906 -30.363281 22.296875 -30.875 20.046875 -30.875 C 17.785156 -30.875 15.695312 -30.363281 13.78125 -29.34375 C 11.863281 -28.320312 10.328125 -26.773438 9.171875 -24.703125 C 8.023438 -22.640625 7.453125 -20.101562 7.453125 -17.09375 C 7.453125 -14.09375 8.023438 -11.554688 9.171875 -9.484375 C 10.328125 -7.421875 11.851562 -5.875 13.75 -4.84375 C 15.644531 -3.820312 17.722656 -3.3125 19.984375 -3.3125 Z M 19.984375 -3.3125 "/></g></g></g><g fill="rgb(100%, 100%, 100%)" fill-opacity="1"><g transform="translate(385.727723, 207.851808)"><g><path d="M 45.734375 -34.828125 C 49.734375 -34.828125 53 -33.5625 55.53125 -31.03125 C 58.0625 -28.507812 59.328125 -24.847656 59.328125 -20.046875 L 59.328125 0 L 55 0 L 55 -19.546875 C 55 -23.265625 54.097656 -26.101562 52.296875 -28.0625 C 50.503906 -30.019531 48.0625 -31 44.96875 -31 C 41.757812 -31 39.191406 -29.9375 37.265625 -27.8125 C 35.347656 -25.6875 34.390625 -22.597656 34.390625 -18.546875 L 34.390625 0 L 30.0625 0 L 30.0625 -19.546875 C 30.0625 -23.265625 29.164062 -26.101562 27.375 -28.0625 C 25.582031 -30.019531 23.117188 -31 19.984375 -31 C 16.765625 -31 14.191406 -29.9375 12.265625 -27.8125 C 10.347656 -25.6875 9.390625 -22.597656 9.390625 -18.546875 L 9.390625 0 L 5.015625 0 L 5.015625 -34.203125 L 9.390625 -34.203125 L 9.390625 -28.3125 C 10.484375 -30.445312 12.03125 -32.066406 14.03125 -33.171875 C 16.03125 -34.273438 18.265625 -34.828125 20.734375 -34.828125 C 23.703125 -34.828125 26.300781 -34.113281 28.53125 -32.6875 C 30.769531 -31.269531 32.390625 -29.1875 33.390625 -26.4375 C 34.304688 -29.144531 35.878906 -31.21875 38.109375 -32.65625 C 40.347656 -34.101562 42.890625 -34.828125 45.734375 -34.828125 Z M 45.734375 -34.828125 "/></g></g></g><g fill="rgb(100%, 100%, 100%)" fill-opacity="1"><g transform="translate(449.742444, 207.851808)"><g><path d="M 9.328125 -26.6875 C 10.421875 -28.976562 12.144531 -30.882812 14.5 -32.40625 C 16.863281 -33.9375 19.671875 -34.703125 22.921875 -34.703125 C 26.015625 -34.703125 28.800781 -33.976562 31.28125 -32.53125 C 33.769531 -31.09375 35.710938 -29.046875 37.109375 -26.390625 C 38.515625 -23.742188 39.21875 -20.664062 39.21875 -17.15625 C 39.21875 -13.65625 38.515625 -10.566406 37.109375 -7.890625 C 35.710938 -5.222656 33.769531 -3.15625 31.28125 -1.6875 C 28.800781 -0.226562 26.015625 0.5 22.921875 0.5 C 19.710938 0.5 16.914062 -0.257812 14.53125 -1.78125 C 12.15625 -3.3125 10.421875 -5.222656 9.328125 -7.515625 L 9.328125 16.15625 L 5.015625 16.15625 L 5.015625 -34.203125 L 9.328125 -34.203125 Z M 34.765625 -17.15625 C 34.765625 -20 34.210938 -22.453125 33.109375 -24.515625 C 32.003906 -26.585938 30.488281 -28.164062 28.5625 -29.25 C 26.644531 -30.332031 24.472656 -30.875 22.046875 -30.875 C 19.710938 -30.875 17.570312 -30.3125 15.625 -29.1875 C 13.6875 -28.0625 12.148438 -26.453125 11.015625 -24.359375 C 9.890625 -22.273438 9.328125 -19.851562 9.328125 -17.09375 C 9.328125 -14.34375 9.890625 -11.921875 11.015625 -9.828125 C 12.148438 -7.742188 13.6875 -6.132812 15.625 -5 C 17.570312 -3.875 19.710938 -3.3125 22.046875 -3.3125 C 24.472656 -3.3125 26.644531 -3.863281 28.5625 -4.96875 C 30.488281 -6.082031 32.003906 -7.691406 33.109375 -9.796875 C 34.210938 -11.910156 34.765625 -14.363281 34.765625 -17.15625 Z M 34.765625 -17.15625 "/></g></g></g><g fill="rgb(100%, 100%, 100%)" fill-opacity="1"><g transform="translate(492.022228, 207.851808)"><g><path d="M 9.390625 -28.125 C 10.359375 -30.257812 11.832031 -31.910156 13.8125 -33.078125 C 15.789062 -34.242188 18.222656 -34.828125 21.109375 -34.828125 L 21.109375 -30.25 L 19.921875 -30.25 C 16.742188 -30.25 14.191406 -29.394531 12.265625 -27.6875 C 10.347656 -25.976562 9.390625 -23.117188 9.390625 -19.109375 L 9.390625 0 L 5.015625 0 L 5.015625 -34.203125 L 9.390625 -34.203125 Z M 9.390625 -28.125 "/></g></g></g><g fill="rgb(100%, 100%, 100%)" fill-opacity="1"><g transform="translate(514.696726, 207.851808)"><g><path d="M 3 -17.15625 C 3 -20.664062 3.695312 -23.742188 5.09375 -26.390625 C 6.5 -29.046875 8.441406 -31.09375 10.921875 -32.53125 C 13.410156 -33.976562 16.222656 -34.703125 19.359375 -34.703125 C 22.609375 -34.703125 25.414062 -33.945312 27.78125 -32.4375 C 30.144531 -30.9375 31.847656 -29.019531 32.890625 -26.6875 L 32.890625 -34.203125 L 37.265625 -34.203125 L 37.265625 0 L 32.890625 0 L 32.890625 -7.578125 C 31.796875 -5.242188 30.066406 -3.3125 27.703125 -1.78125 C 25.347656 -0.257812 22.546875 0.5 19.296875 0.5 C 16.203125 0.5 13.410156 -0.226562 10.921875 -1.6875 C 8.441406 -3.15625 6.5 -5.222656 5.09375 -7.890625 C 3.695312 -10.566406 3 -13.65625 3 -17.15625 Z M 32.890625 -17.09375 C 32.890625 -19.851562 32.320312 -22.273438 31.1875 -24.359375 C 30.0625 -26.453125 28.523438 -28.0625 26.578125 -29.1875 C 24.640625 -30.3125 22.503906 -30.875 20.171875 -30.875 C 17.742188 -30.875 15.570312 -30.332031 13.65625 -29.25 C 11.738281 -28.164062 10.222656 -26.585938 9.109375 -24.515625 C 8.003906 -22.453125 7.453125 -20 7.453125 -17.15625 C 7.453125 -14.363281 8.003906 -11.910156 9.109375 -9.796875 C 10.222656 -7.691406 11.738281 -6.082031 13.65625 -4.96875 C 15.570312 -3.863281 17.742188 -3.3125 20.171875 -3.3125 C 22.503906 -3.3125 24.640625 -3.875 26.578125 -5 C 28.523438 -6.132812 30.0625 -7.742188 31.1875 -9.828125 C 32.320312 -11.921875 32.890625 -14.34375 32.890625 -17.09375 Z M 32.890625 -17.09375 "/></g></g></g><g fill="rgb(100%, 100%, 100%)" fill-opacity="1"><g transform="translate(556.976509, 207.851808)"><g/></g></g><g fill="rgb(100%, 100%, 100%)" fill-opacity="1"><g transform="translate(574.138984, 207.851808)"><g><path d="M 3 -17.15625 C 3 -20.664062 3.707031 -23.742188 5.125 -26.390625 C 6.550781 -29.046875 8.503906 -31.09375 10.984375 -32.53125 C 13.472656 -33.976562 16.285156 -34.703125 19.421875 -34.703125 C 22.421875 -34.703125 25.128906 -33.96875 27.546875 -32.5 C 29.972656 -31.039062 31.753906 -29.144531 32.890625 -26.8125 L 32.890625 -46.359375 L 37.265625 -46.359375 L 37.265625 0 L 32.890625 0 L 32.890625 -7.640625 C 31.847656 -5.265625 30.132812 -3.3125 27.75 -1.78125 C 25.363281 -0.257812 22.566406 0.5 19.359375 0.5 C 16.222656 0.5 13.410156 -0.226562 10.921875 -1.6875 C 8.441406 -3.15625 6.5 -5.222656 5.09375 -7.890625 C 3.695312 -10.566406 3 -13.65625 3 -17.15625 Z M 32.890625 -17.09375 C 32.890625 -19.851562 32.320312 -22.273438 31.1875 -24.359375 C 30.0625 -26.453125 28.523438 -28.0625 26.578125 -29.1875 C 24.640625 -30.3125 22.503906 -30.875 20.171875 -30.875 C 17.742188 -30.875 15.570312 -30.332031 13.65625 -29.25 C 11.738281 -28.164062 10.222656 -26.585938 9.109375 -24.515625 C 8.003906 -22.453125 7.453125 -20 7.453125 -17.15625 C 7.453125 -14.363281 8.003906 -11.910156 9.109375 -9.796875 C 10.222656 -7.691406 11.738281 -6.082031 13.65625 -4.96875 C 15.570312 -3.863281 17.742188 -3.3125 20.171875 -3.3125 C 22.503906 -3.3125 24.640625 -3.875 26.578125 -5 C 28.523438 -6.132812 30.0625 -7.742188 31.1875 -9.828125 C 32.320312 -11.921875 32.890625 -14.34375 32.890625 -17.09375 Z M 32.890625 -17.09375 "/></g></g></g><g fill="rgb(100%, 100%, 100%)" fill-opacity="1"><g transform="translate(616.418767, 207.851808)"><g><path d="M 35.953125 -18.859375 C 35.953125 -17.347656 35.910156 -16.195312 35.828125 -15.40625 L 7.453125 -15.40625 C 7.578125 -12.820312 8.203125 -10.609375 9.328125 -8.765625 C 10.460938 -6.929688 11.945312 -5.539062 13.78125 -4.59375 C 15.613281 -3.65625 17.617188 -3.1875 19.796875 -3.1875 C 22.628906 -3.1875 25.015625 -3.875 26.953125 -5.25 C 28.898438 -6.632812 30.1875 -8.5 30.8125 -10.84375 L 35.453125 -10.84375 C 34.617188 -7.5 32.832031 -4.769531 30.09375 -2.65625 C 27.363281 -0.550781 23.929688 0.5 19.796875 0.5 C 16.578125 0.5 13.691406 -0.21875 11.140625 -1.65625 C 8.597656 -3.101562 6.601562 -5.148438 5.15625 -7.796875 C 3.71875 -10.453125 3 -13.550781 3 -17.09375 C 3 -20.644531 3.707031 -23.753906 5.125 -26.421875 C 6.550781 -29.097656 8.535156 -31.144531 11.078125 -32.5625 C 13.628906 -33.988281 16.535156 -34.703125 19.796875 -34.703125 C 23.054688 -34.703125 25.90625 -33.988281 28.34375 -32.5625 C 30.789062 -31.144531 32.671875 -29.234375 33.984375 -26.828125 C 35.296875 -24.429688 35.953125 -21.773438 35.953125 -18.859375 Z M 31.515625 -18.984375 C 31.554688 -21.523438 31.039062 -23.691406 29.96875 -25.484375 C 28.90625 -27.285156 27.453125 -28.644531 25.609375 -29.5625 C 23.773438 -30.476562 21.773438 -30.9375 19.609375 -30.9375 C 16.347656 -30.9375 13.566406 -29.894531 11.265625 -27.8125 C 8.972656 -25.726562 7.703125 -22.785156 7.453125 -18.984375 Z M 31.515625 -18.984375 "/></g></g></g><g fill="rgb(100%, 100%, 100%)" fill-opacity="1"><g transform="translate(655.37107, 207.851808)"><g/></g></g><path fill="rgb(9.408569%, 9.01947%, 27.449036%)" d="M 843.890625 461.914062 L 1051.683594 530.710938 L 1051.683594 236.640625 L 987.726562 331.300781 L 843.890625 303.570312 L 843.890625 461.914062 " fill-opacity="1" fill-rule="nonzero"/><g clip-path="url(#id3)"><path fill="rgb(9.408569%, 9.01947%, 27.449036%)" d="M 1013.941406 176.160156 L 955.152344 139.445312 L 764.148438 168.75 L 759.222656 165.5 L 832.21875 214.265625 L 770.941406 281.195312 L 984.285156 319.015625 L 1052.832031 219.238281 L 860.105469 211.492188 L 1016.957031 178.074219 L 1224.75 178.074219 L 1054.886719 217.46875 L 1128.601562 302.757812 L 1298.03125 241.179688 L 1234.078125 175.921875 L 1233.40625 176.066406 L 1277.320312 90.394531 L 1067.566406 95.363281 L 1013.941406 176.160156 " fill-opacity="1" fill-rule="nonzero"/></g><g clip-path="url(#id4)"><path fill="rgb(9.408569%, 9.01947%, 27.449036%)" d="M 1062.828125 535.683594 L 1233.023438 433.132812 L 1235.75 272.734375 L 1122.382812 314.042969 L 1062.828125 236.640625 L 1062.828125 535.683594 " fill-opacity="1" fill-rule="nonzero"/></g><path fill="rgb(100%, 100%, 100%)" d="M 2046.347656 446.773438 C 1861.230469 412.925781 1673.472656 384.898438 1484.652344 400.761719 C 1302.183594 416.097656 1133.992188 504.414062 950.464844 510.761719 C 764.292969 517.105469 577.589844 484.320312 397.234375 442.539062 C 94.175781 372.734375 -145.945312 458.40625 -297.738281 546.722656 L -297.738281 2390.246094 L 2346.761719 2390.246094 L 2346.761719 509.175781 C 2247.855469 483.261719 2145.777344 464.75 2046.347656 446.773438 " fill-opacity="1" fill-rule="nonzero"/><g fill="rgb(100%, 100%, 100%)" fill-opacity="1"><g transform="translate(81.000002, 292.575152)"><g><path d="M 36.203125 -30.1875 C 36.203125 -27.851562 35.648438 -25.660156 34.546875 -23.609375 C 33.441406 -21.566406 31.707031 -19.914062 29.34375 -18.65625 C 26.988281 -17.40625 24.015625 -16.78125 20.421875 -16.78125 L 13.09375 -16.78125 L 13.09375 0 L 4.328125 0 L 4.328125 -43.71875 L 20.421875 -43.71875 C 23.804688 -43.71875 26.6875 -43.132812 29.0625 -41.96875 C 31.445312 -40.800781 33.234375 -39.191406 34.421875 -37.140625 C 35.609375 -35.097656 36.203125 -32.78125 36.203125 -30.1875 Z M 20.046875 -23.859375 C 22.460938 -23.859375 24.253906 -24.410156 25.421875 -25.515625 C 26.597656 -26.628906 27.1875 -28.1875 27.1875 -30.1875 C 27.1875 -34.445312 24.804688 -36.578125 20.046875 -36.578125 L 13.09375 -36.578125 L 13.09375 -23.859375 Z M 20.046875 -23.859375 "/></g></g></g><g fill="rgb(100%, 100%, 100%)" fill-opacity="1"><g transform="translate(119.083134, 292.575152)"><g><path d="M 2.0625 -17.484375 C 2.0625 -20.984375 2.757812 -24.085938 4.15625 -26.796875 C 5.5625 -29.515625 7.460938 -31.601562 9.859375 -33.0625 C 12.265625 -34.53125 14.953125 -35.265625 17.921875 -35.265625 C 20.503906 -35.265625 22.765625 -34.742188 24.703125 -33.703125 C 26.648438 -32.660156 28.207031 -31.34375 29.375 -29.75 L 29.375 -34.703125 L 38.203125 -34.703125 L 38.203125 0 L 29.375 0 L 29.375 -5.078125 C 28.25 -3.441406 26.691406 -2.09375 24.703125 -1.03125 C 22.722656 0.03125 20.441406 0.5625 17.859375 0.5625 C 14.929688 0.5625 12.265625 -0.1875 9.859375 -1.6875 C 7.460938 -3.195312 5.5625 -5.316406 4.15625 -8.046875 C 2.757812 -10.785156 2.0625 -13.929688 2.0625 -17.484375 Z M 29.375 -17.34375 C 29.375 -19.476562 28.957031 -21.304688 28.125 -22.828125 C 27.289062 -24.359375 26.160156 -25.53125 24.734375 -26.34375 C 23.316406 -27.15625 21.796875 -27.5625 20.171875 -27.5625 C 18.546875 -27.5625 17.039062 -27.164062 15.65625 -26.375 C 14.28125 -25.582031 13.164062 -24.421875 12.3125 -22.890625 C 11.457031 -21.367188 11.03125 -19.566406 11.03125 -17.484375 C 11.03125 -15.390625 11.457031 -13.554688 12.3125 -11.984375 C 13.164062 -10.421875 14.289062 -9.222656 15.6875 -8.390625 C 17.09375 -7.554688 18.585938 -7.140625 20.171875 -7.140625 C 21.796875 -7.140625 23.316406 -7.546875 24.734375 -8.359375 C 26.160156 -9.171875 27.289062 -10.335938 28.125 -11.859375 C 28.957031 -13.390625 29.375 -15.21875 29.375 -17.34375 Z M 29.375 -17.34375 "/></g></g></g><g fill="rgb(100%, 100%, 100%)" fill-opacity="1"><g transform="translate(161.55084, 292.575152)"><g><path d="M 2.0625 -17.34375 C 2.0625 -20.9375 2.789062 -24.078125 4.25 -26.765625 C 5.71875 -29.460938 7.742188 -31.550781 10.328125 -33.03125 C 12.921875 -34.519531 15.890625 -35.265625 19.234375 -35.265625 C 23.535156 -35.265625 27.09375 -34.1875 29.90625 -32.03125 C 32.726562 -29.882812 34.617188 -26.867188 35.578125 -22.984375 L 26.125 -22.984375 C 25.625 -24.492188 24.773438 -25.675781 23.578125 -26.53125 C 22.390625 -27.382812 20.921875 -27.8125 19.171875 -27.8125 C 16.660156 -27.8125 14.675781 -26.898438 13.21875 -25.078125 C 11.757812 -23.265625 11.03125 -20.6875 11.03125 -17.34375 C 11.03125 -14.050781 11.757812 -11.492188 13.21875 -9.671875 C 14.675781 -7.859375 16.660156 -6.953125 19.171875 -6.953125 C 22.722656 -6.953125 25.039062 -8.539062 26.125 -11.71875 L 35.578125 -11.71875 C 34.617188 -7.957031 32.71875 -4.96875 29.875 -2.75 C 27.039062 -0.539062 23.492188 0.5625 19.234375 0.5625 C 15.890625 0.5625 12.921875 -0.175781 10.328125 -1.65625 C 7.742188 -3.144531 5.71875 -5.234375 4.25 -7.921875 C 2.789062 -10.617188 2.0625 -13.757812 2.0625 -17.34375 Z M 2.0625 -17.34375 "/></g></g></g><g fill="rgb(100%, 100%, 100%)" fill-opacity="1"><g transform="translate(199.258148, 292.575152)"><g><path d="M 19.734375 0.5625 C 16.390625 0.5625 13.378906 -0.175781 10.703125 -1.65625 C 8.035156 -3.144531 5.9375 -5.242188 4.40625 -7.953125 C 2.882812 -10.671875 2.125 -13.800781 2.125 -17.34375 C 2.125 -20.894531 2.90625 -24.023438 4.46875 -26.734375 C 6.039062 -29.453125 8.179688 -31.550781 10.890625 -33.03125 C 13.609375 -34.519531 16.640625 -35.265625 19.984375 -35.265625 C 23.328125 -35.265625 26.351562 -34.519531 29.0625 -33.03125 C 31.78125 -31.550781 33.921875 -29.453125 35.484375 -26.734375 C 37.046875 -24.023438 37.828125 -20.894531 37.828125 -17.34375 C 37.828125 -13.800781 37.023438 -10.671875 35.421875 -7.953125 C 33.816406 -5.242188 31.644531 -3.144531 28.90625 -1.65625 C 26.175781 -0.175781 23.117188 0.5625 19.734375 0.5625 Z M 19.734375 -7.078125 C 21.316406 -7.078125 22.804688 -7.460938 24.203125 -8.234375 C 25.609375 -9.003906 26.726562 -10.160156 27.5625 -11.703125 C 28.394531 -13.253906 28.8125 -15.132812 28.8125 -17.34375 C 28.8125 -20.644531 27.941406 -23.179688 26.203125 -24.953125 C 24.472656 -26.734375 22.359375 -27.625 19.859375 -27.625 C 17.347656 -27.625 15.25 -26.734375 13.5625 -24.953125 C 11.875 -23.179688 11.03125 -20.644531 11.03125 -17.34375 C 11.03125 -14.050781 11.851562 -11.515625 13.5 -9.734375 C 15.144531 -7.960938 17.222656 -7.078125 19.734375 -7.078125 Z M 19.734375 -7.078125 "/></g></g></g><g fill="rgb(100%, 100%, 100%)" fill-opacity="1"><g transform="translate(239.220376, 292.575152)"><g><path d="M 14.53125 -27.5 L 14.53125 -10.71875 C 14.53125 -9.539062 14.8125 -8.691406 15.375 -8.171875 C 15.9375 -7.648438 16.890625 -7.390625 18.234375 -7.390625 L 22.296875 -7.390625 L 22.296875 0 L 16.78125 0 C 9.394531 0 5.703125 -3.59375 5.703125 -10.78125 L 5.703125 -27.5 L 1.5625 -27.5 L 1.5625 -34.703125 L 5.703125 -34.703125 L 5.703125 -43.28125 L 14.53125 -43.28125 L 14.53125 -34.703125 L 22.296875 -34.703125 L 22.296875 -27.5 Z M 14.53125 -27.5 "/></g></g></g><g fill="rgb(100%, 100%, 100%)" fill-opacity="1"><g transform="translate(263.523426, 292.575152)"><g><path d="M 36.578125 -18.109375 C 36.578125 -16.847656 36.492188 -15.71875 36.328125 -14.71875 L 10.96875 -14.71875 C 11.175781 -12.21875 12.050781 -10.253906 13.59375 -8.828125 C 15.132812 -7.410156 17.035156 -6.703125 19.296875 -6.703125 C 22.546875 -6.703125 24.863281 -8.101562 26.25 -10.90625 L 35.703125 -10.90625 C 34.703125 -7.5625 32.78125 -4.8125 29.9375 -2.65625 C 27.101562 -0.507812 23.617188 0.5625 19.484375 0.5625 C 16.140625 0.5625 13.140625 -0.175781 10.484375 -1.65625 C 7.835938 -3.144531 5.769531 -5.242188 4.28125 -7.953125 C 2.800781 -10.671875 2.0625 -13.800781 2.0625 -17.34375 C 2.0625 -20.9375 2.789062 -24.085938 4.25 -26.796875 C 5.71875 -29.515625 7.765625 -31.601562 10.390625 -33.0625 C 13.023438 -34.53125 16.054688 -35.265625 19.484375 -35.265625 C 22.785156 -35.265625 25.738281 -34.550781 28.34375 -33.125 C 30.957031 -31.707031 32.984375 -29.691406 34.421875 -27.078125 C 35.859375 -24.472656 36.578125 -21.484375 36.578125 -18.109375 Z M 27.5 -20.609375 C 27.457031 -22.859375 26.640625 -24.660156 25.046875 -26.015625 C 23.460938 -27.378906 21.523438 -28.0625 19.234375 -28.0625 C 17.054688 -28.0625 15.226562 -27.398438 13.75 -26.078125 C 12.269531 -24.765625 11.363281 -22.941406 11.03125 -20.609375 Z M 27.5 -20.609375 "/></g></g></g><g fill="rgb(100%, 100%, 100%)" fill-opacity="1"><g transform="translate(302.170294, 292.575152)"><g/></g></g><g fill="rgb(100%, 100%, 100%)" fill-opacity="1"><g transform="translate(317.077825, 292.575152)"><g><path d="M 2.0625 -17.484375 C 2.0625 -20.984375 2.757812 -24.085938 4.15625 -26.796875 C 5.5625 -29.515625 7.472656 -31.601562 9.890625 -33.0625 C 12.316406 -34.53125 15.015625 -35.265625 17.984375 -35.265625 C 20.234375 -35.265625 22.378906 -34.773438 24.421875 -33.796875 C 26.472656 -32.816406 28.101562 -31.507812 29.3125 -29.875 L 29.3125 -46.359375 L 38.203125 -46.359375 L 38.203125 0 L 29.3125 0 L 29.3125 -5.140625 C 28.226562 -3.421875 26.703125 -2.039062 24.734375 -1 C 22.773438 0.0390625 20.503906 0.5625 17.921875 0.5625 C 14.992188 0.5625 12.316406 -0.1875 9.890625 -1.6875 C 7.472656 -3.195312 5.5625 -5.316406 4.15625 -8.046875 C 2.757812 -10.785156 2.0625 -13.929688 2.0625 -17.484375 Z M 29.375 -17.34375 C 29.375 -19.476562 28.957031 -21.304688 28.125 -22.828125 C 27.289062 -24.359375 26.160156 -25.53125 24.734375 -26.34375 C 23.316406 -27.15625 21.796875 -27.5625 20.171875 -27.5625 C 18.546875 -27.5625 17.039062 -27.164062 15.65625 -26.375 C 14.28125 -25.582031 13.164062 -24.421875 12.3125 -22.890625 C 11.457031 -21.367188 11.03125 -19.566406 11.03125 -17.484375 C 11.03125 -15.390625 11.457031 -13.554688 12.3125 -11.984375 C 13.164062 -10.421875 14.289062 -9.222656 15.6875 -8.390625 C 17.09375 -7.554688 18.585938 -7.140625 20.171875 -7.140625 C 21.796875 -7.140625 23.316406 -7.546875 24.734375 -8.359375 C 26.160156 -9.171875 27.289062 -10.335938 28.125 -11.859375 C 28.957031 -13.390625 29.375 -15.21875 29.375 -17.34375 Z M 29.375 -17.34375 "/></g></g></g><g fill="rgb(100%, 100%, 100%)" fill-opacity="1"><g transform="translate(359.54552, 292.575152)"><g><path d="M 36.578125 -18.109375 C 36.578125 -16.847656 36.492188 -15.71875 36.328125 -14.71875 L 10.96875 -14.71875 C 11.175781 -12.21875 12.050781 -10.253906 13.59375 -8.828125 C 15.132812 -7.410156 17.035156 -6.703125 19.296875 -6.703125 C 22.546875 -6.703125 24.863281 -8.101562 26.25 -10.90625 L 35.703125 -10.90625 C 34.703125 -7.5625 32.78125 -4.8125 29.9375 -2.65625 C 27.101562 -0.507812 23.617188 0.5625 19.484375 0.5625 C 16.140625 0.5625 13.140625 -0.175781 10.484375 -1.65625 C 7.835938 -3.144531 5.769531 -5.242188 4.28125 -7.953125 C 2.800781 -10.671875 2.0625 -13.800781 2.0625 -17.34375 C 2.0625 -20.9375 2.789062 -24.085938 4.25 -26.796875 C 5.71875 -29.515625 7.765625 -31.601562 10.390625 -33.0625 C 13.023438 -34.53125 16.054688 -35.265625 19.484375 -35.265625 C 22.785156 -35.265625 25.738281 -34.550781 28.34375 -33.125 C 30.957031 -31.707031 32.984375 -29.691406 34.421875 -27.078125 C 35.859375 -24.472656 36.578125 -21.484375 36.578125 -18.109375 Z M 27.5 -20.609375 C 27.457031 -22.859375 26.640625 -24.660156 25.046875 -26.015625 C 23.460938 -27.378906 21.523438 -28.0625 19.234375 -28.0625 C 17.054688 -28.0625 15.226562 -27.398438 13.75 -26.078125 C 12.269531 -24.765625 11.363281 -22.941406 11.03125 -20.609375 Z M 27.5 -20.609375 "/></g></g></g><g fill="rgb(100%, 100%, 100%)" fill-opacity="1"><g transform="translate(398.192399, 292.575152)"><g/></g></g><g fill="rgb(100%, 100%, 100%)" fill-opacity="1"><g transform="translate(413.09993, 292.575152)"><g><path d="M 2.0625 -17.484375 C 2.0625 -20.984375 2.757812 -24.085938 4.15625 -26.796875 C 5.5625 -29.515625 7.460938 -31.601562 9.859375 -33.0625 C 12.265625 -34.53125 14.953125 -35.265625 17.921875 -35.265625 C 20.503906 -35.265625 22.765625 -34.742188 24.703125 -33.703125 C 26.648438 -32.660156 28.207031 -31.34375 29.375 -29.75 L 29.375 -34.703125 L 38.203125 -34.703125 L 38.203125 0 L 29.375 0 L 29.375 -5.078125 C 28.25 -3.441406 26.691406 -2.09375 24.703125 -1.03125 C 22.722656 0.03125 20.441406 0.5625 17.859375 0.5625 C 14.929688 0.5625 12.265625 -0.1875 9.859375 -1.6875 C 7.460938 -3.195312 5.5625 -5.316406 4.15625 -8.046875 C 2.757812 -10.785156 2.0625 -13.929688 2.0625 -17.484375 Z M 29.375 -17.34375 C 29.375 -19.476562 28.957031 -21.304688 28.125 -22.828125 C 27.289062 -24.359375 26.160156 -25.53125 24.734375 -26.34375 C 23.316406 -27.15625 21.796875 -27.5625 20.171875 -27.5625 C 18.546875 -27.5625 17.039062 -27.164062 15.65625 -26.375 C 14.28125 -25.582031 13.164062 -24.421875 12.3125 -22.890625 C 11.457031 -21.367188 11.03125 -19.566406 11.03125 -17.484375 C 11.03125 -15.390625 11.457031 -13.554688 12.3125 -11.984375 C 13.164062 -10.421875 14.289062 -9.222656 15.6875 -8.390625 C 17.09375 -7.554688 18.585938 -7.140625 20.171875 -7.140625 C 21.796875 -7.140625 23.316406 -7.546875 24.734375 -8.359375 C 26.160156 -9.171875 27.289062 -10.335938 28.125 -11.859375 C 28.957031 -13.390625 29.375 -15.21875 29.375 -17.34375 Z M 29.375 -17.34375 "/></g></g></g><g fill="rgb(100%, 100%, 100%)" fill-opacity="1"><g transform="translate(455.567625, 292.575152)"><g><path d="M 2.0625 -17.484375 C 2.0625 -20.984375 2.757812 -24.085938 4.15625 -26.796875 C 5.5625 -29.515625 7.472656 -31.601562 9.890625 -33.0625 C 12.316406 -34.53125 15.015625 -35.265625 17.984375 -35.265625 C 20.234375 -35.265625 22.378906 -34.773438 24.421875 -33.796875 C 26.472656 -32.816406 28.101562 -31.507812 29.3125 -29.875 L 29.3125 -46.359375 L 38.203125 -46.359375 L 38.203125 0 L 29.3125 0 L 29.3125 -5.140625 C 28.226562 -3.421875 26.703125 -2.039062 24.734375 -1 C 22.773438 0.0390625 20.503906 0.5625 17.921875 0.5625 C 14.992188 0.5625 12.316406 -0.1875 9.890625 -1.6875 C 7.472656 -3.195312 5.5625 -5.316406 4.15625 -8.046875 C 2.757812 -10.785156 2.0625 -13.929688 2.0625 -17.484375 Z M 29.375 -17.34375 C 29.375 -19.476562 28.957031 -21.304688 28.125 -22.828125 C 27.289062 -24.359375 26.160156 -25.53125 24.734375 -26.34375 C 23.316406 -27.15625 21.796875 -27.5625 20.171875 -27.5625 C 18.546875 -27.5625 17.039062 -27.164062 15.65625 -26.375 C 14.28125 -25.582031 13.164062 -24.421875 12.3125 -22.890625 C 11.457031 -21.367188 11.03125 -19.566406 11.03125 -17.484375 C 11.03125 -15.390625 11.457031 -13.554688 12.3125 -11.984375 C 13.164062 -10.421875 14.289062 -9.222656 15.6875 -8.390625 C 17.09375 -7.554688 18.585938 -7.140625 20.171875 -7.140625 C 21.796875 -7.140625 23.316406 -7.546875 24.734375 -8.359375 C 26.160156 -9.171875 27.289062 -10.335938 28.125 -11.859375 C 28.957031 -13.390625 29.375 -15.21875 29.375 -17.34375 Z M 29.375 -17.34375 "/></g></g></g><g fill="rgb(100%, 100%, 100%)" fill-opacity="1"><g transform="translate(498.03532, 292.575152)"><g><path d="M 36.578125 -18.109375 C 36.578125 -16.847656 36.492188 -15.71875 36.328125 -14.71875 L 10.96875 -14.71875 C 11.175781 -12.21875 12.050781 -10.253906 13.59375 -8.828125 C 15.132812 -7.410156 17.035156 -6.703125 19.296875 -6.703125 C 22.546875 -6.703125 24.863281 -8.101562 26.25 -10.90625 L 35.703125 -10.90625 C 34.703125 -7.5625 32.78125 -4.8125 29.9375 -2.65625 C 27.101562 -0.507812 23.617188 0.5625 19.484375 0.5625 C 16.140625 0.5625 13.140625 -0.175781 10.484375 -1.65625 C 7.835938 -3.144531 5.769531 -5.242188 4.28125 -7.953125 C 2.800781 -10.671875 2.0625 -13.800781 2.0625 -17.34375 C 2.0625 -20.9375 2.789062 -24.085938 4.25 -26.796875 C 5.71875 -29.515625 7.765625 -31.601562 10.390625 -33.0625 C 13.023438 -34.53125 16.054688 -35.265625 19.484375 -35.265625 C 22.785156 -35.265625 25.738281 -34.550781 28.34375 -33.125 C 30.957031 -31.707031 32.984375 -29.691406 34.421875 -27.078125 C 35.859375 -24.472656 36.578125 -21.484375 36.578125 -18.109375 Z M 27.5 -20.609375 C 27.457031 -22.859375 26.640625 -24.660156 25.046875 -26.015625 C 23.460938 -27.378906 21.523438 -28.0625 19.234375 -28.0625 C 17.054688 -28.0625 15.226562 -27.398438 13.75 -26.078125 C 12.269531 -24.765625 11.363281 -22.941406 11.03125 -20.609375 Z M 27.5 -20.609375 "/></g></g></g><g fill="rgb(100%, 100%, 100%)" fill-opacity="1"><g transform="translate(536.682199, 292.575152)"><g><path d="M 17.609375 0.5625 C 14.765625 0.5625 12.210938 0.0507812 9.953125 -0.96875 C 7.703125 -1.988281 5.914062 -3.375 4.59375 -5.125 C 3.28125 -6.882812 2.5625 -8.832031 2.4375 -10.96875 L 11.28125 -10.96875 C 11.445312 -9.625 12.101562 -8.515625 13.25 -7.640625 C 14.394531 -6.765625 15.828125 -6.328125 17.546875 -6.328125 C 19.210938 -6.328125 20.515625 -6.660156 21.453125 -7.328125 C 22.390625 -7.992188 22.859375 -8.847656 22.859375 -9.890625 C 22.859375 -11.023438 22.285156 -11.875 21.140625 -12.4375 C 19.992188 -13 18.164062 -13.613281 15.65625 -14.28125 C 13.070312 -14.90625 10.953125 -15.550781 9.296875 -16.21875 C 7.648438 -16.882812 6.226562 -17.90625 5.03125 -19.28125 C 3.84375 -20.664062 3.25 -22.53125 3.25 -24.875 C 3.25 -26.789062 3.800781 -28.539062 4.90625 -30.125 C 6.019531 -31.71875 7.609375 -32.972656 9.671875 -33.890625 C 11.742188 -34.804688 14.175781 -35.265625 16.96875 -35.265625 C 21.101562 -35.265625 24.398438 -34.226562 26.859375 -32.15625 C 29.328125 -30.09375 30.6875 -27.304688 30.9375 -23.796875 L 22.546875 -23.796875 C 22.421875 -25.179688 21.847656 -26.28125 20.828125 -27.09375 C 19.804688 -27.90625 18.4375 -28.3125 16.71875 -28.3125 C 15.132812 -28.3125 13.914062 -28.019531 13.0625 -27.4375 C 12.207031 -26.851562 11.78125 -26.039062 11.78125 -25 C 11.78125 -23.820312 12.363281 -22.929688 13.53125 -22.328125 C 14.695312 -21.722656 16.515625 -21.109375 18.984375 -20.484375 C 21.484375 -19.859375 23.546875 -19.210938 25.171875 -18.546875 C 26.804688 -17.878906 28.21875 -16.84375 29.40625 -15.4375 C 30.59375 -14.039062 31.207031 -12.191406 31.25 -9.890625 C 31.25 -7.890625 30.695312 -6.09375 29.59375 -4.5 C 28.488281 -2.914062 26.898438 -1.675781 24.828125 -0.78125 C 22.765625 0.113281 20.359375 0.5625 17.609375 0.5625 Z M 17.609375 0.5625 "/></g></g></g><g fill="rgb(100%, 100%, 100%)" fill-opacity="1"><g transform="translate(570.819191, 292.575152)"><g><path d="M 8.765625 -38.84375 C 7.222656 -38.84375 5.9375 -39.332031 4.90625 -40.3125 C 3.882812 -41.289062 3.375 -42.507812 3.375 -43.96875 C 3.375 -45.4375 3.882812 -46.660156 4.90625 -47.640625 C 5.9375 -48.617188 7.222656 -49.109375 8.765625 -49.109375 C 10.316406 -49.109375 11.601562 -48.617188 12.625 -47.640625 C 13.644531 -46.660156 14.15625 -45.4375 14.15625 -43.96875 C 14.15625 -42.507812 13.644531 -41.289062 12.625 -40.3125 C 11.601562 -39.332031 10.316406 -38.84375 8.765625 -38.84375 Z M 13.09375 -34.703125 L 13.09375 0 L 4.328125 0 L 4.328125 -34.703125 Z M 13.09375 -34.703125 "/></g></g></g><g fill="rgb(100%, 100%, 100%)" fill-opacity="1"><g transform="translate(588.232199, 292.575152)"><g><path d="M 18.796875 -8.078125 L 27.5625 -34.703125 L 36.890625 -34.703125 L 24.046875 0 L 13.40625 0 L 0.625 -34.703125 L 10.015625 -34.703125 Z M 18.796875 -8.078125 "/></g></g></g><g fill="rgb(100%, 100%, 100%)" fill-opacity="1"><g transform="translate(625.751607, 292.575152)"><g><path d="M 19.734375 0.5625 C 16.390625 0.5625 13.378906 -0.175781 10.703125 -1.65625 C 8.035156 -3.144531 5.9375 -5.242188 4.40625 -7.953125 C 2.882812 -10.671875 2.125 -13.800781 2.125 -17.34375 C 2.125 -20.894531 2.90625 -24.023438 4.46875 -26.734375 C 6.039062 -29.453125 8.179688 -31.550781 10.890625 -33.03125 C 13.609375 -34.519531 16.640625 -35.265625 19.984375 -35.265625 C 23.328125 -35.265625 26.351562 -34.519531 29.0625 -33.03125 C 31.78125 -31.550781 33.921875 -29.453125 35.484375 -26.734375 C 37.046875 -24.023438 37.828125 -20.894531 37.828125 -17.34375 C 37.828125 -13.800781 37.023438 -10.671875 35.421875 -7.953125 C 33.816406 -5.242188 31.644531 -3.144531 28.90625 -1.65625 C 26.175781 -0.175781 23.117188 0.5625 19.734375 0.5625 Z M 19.734375 -7.078125 C 21.316406 -7.078125 22.804688 -7.460938 24.203125 -8.234375 C 25.609375 -9.003906 26.726562 -10.160156 27.5625 -11.703125 C 28.394531 -13.253906 28.8125 -15.132812 28.8125 -17.34375 C 28.8125 -20.644531 27.941406 -23.179688 26.203125 -24.953125 C 24.472656 -26.734375 22.359375 -27.625 19.859375 -27.625 C 17.347656 -27.625 15.25 -26.734375 13.5625 -24.953125 C 11.875 -23.179688 11.03125 -20.644531 11.03125 -17.34375 C 11.03125 -14.050781 11.851562 -11.515625 13.5 -9.734375 C 15.144531 -7.960938 17.222656 -7.078125 19.734375 -7.078125 Z M 19.734375 -7.078125 "/></g></g></g><g fill="rgb(100%, 100%, 100%)" fill-opacity="1"><g transform="translate(665.713824, 292.575152)"><g><path d="M 17.609375 0.5625 C 14.765625 0.5625 12.210938 0.0507812 9.953125 -0.96875 C 7.703125 -1.988281 5.914062 -3.375 4.59375 -5.125 C 3.28125 -6.882812 2.5625 -8.832031 2.4375 -10.96875 L 11.28125 -10.96875 C 11.445312 -9.625 12.101562 -8.515625 13.25 -7.640625 C 14.394531 -6.765625 15.828125 -6.328125 17.546875 -6.328125 C 19.210938 -6.328125 20.515625 -6.660156 21.453125 -7.328125 C 22.390625 -7.992188 22.859375 -8.847656 22.859375 -9.890625 C 22.859375 -11.023438 22.285156 -11.875 21.140625 -12.4375 C 19.992188 -13 18.164062 -13.613281 15.65625 -14.28125 C 13.070312 -14.90625 10.953125 -15.550781 9.296875 -16.21875 C 7.648438 -16.882812 6.226562 -17.90625 5.03125 -19.28125 C 3.84375 -20.664062 3.25 -22.53125 3.25 -24.875 C 3.25 -26.789062 3.800781 -28.539062 4.90625 -30.125 C 6.019531 -31.71875 7.609375 -32.972656 9.671875 -33.890625 C 11.742188 -34.804688 14.175781 -35.265625 16.96875 -35.265625 C 21.101562 -35.265625 24.398438 -34.226562 26.859375 -32.15625 C 29.328125 -30.09375 30.6875 -27.304688 30.9375 -23.796875 L 22.546875 -23.796875 C 22.421875 -25.179688 21.847656 -26.28125 20.828125 -27.09375 C 19.804688 -27.90625 18.4375 -28.3125 16.71875 -28.3125 C 15.132812 -28.3125 13.914062 -28.019531 13.0625 -27.4375 C 12.207031 -26.851562 11.78125 -26.039062 11.78125 -25 C 11.78125 -23.820312 12.363281 -22.929688 13.53125 -22.328125 C 14.695312 -21.722656 16.515625 -21.109375 18.984375 -20.484375 C 21.484375 -19.859375 23.546875 -19.210938 25.171875 -18.546875 C 26.804688 -17.878906 28.21875 -16.84375 29.40625 -15.4375 C 30.59375 -14.039062 31.207031 -12.191406 31.25 -9.890625 C 31.25 -7.890625 30.695312 -6.09375 29.59375 -4.5 C 28.488281 -2.914062 26.898438 -1.675781 24.828125 -0.78125 C 22.765625 0.113281 20.359375 0.5625 17.609375 0.5625 Z M 17.609375 0.5625 "/></g></g></g><g fill="rgb(100%, 100%, 100%)" fill-opacity="1"><g transform="translate(699.843721, 292.575152)"><g/></g></g></svg>