<svg xmlns="http://www.w3.org/2000/svg" xmlns:xlink="http://www.w3.org/1999/xlink" width="1300" zoomAndPan="magnify" viewBox="0 0 974.88 374.999991" height="500" preserveAspectRatio="xMidYMid meet" version="1.0"><defs><clipPath id="id1"><path d="M 0 0.71875 L 974.761719 0.71875 L 974.761719 374.921875 L 0 374.921875 Z M 0 0.71875 " clip-rule="nonzero"/></clipPath><clipPath id="id2"><path d="M 609 171 L 760 171 L 760 374.921875 L 609 374.921875 Z M 609 171 " clip-rule="nonzero"/></clipPath><clipPath id="id3"><path d="M 548.097656 66.027344 L 938 66.027344 L 938 231.800781 L 548.097656 231.800781 Z M 548.097656 66.027344 " clip-rule="nonzero"/></clipPath><clipPath id="id4"><path d="M 767 171.140625 L 892.558594 171.140625 L 892.558594 374.921875 L 767 374.921875 Z M 767 171.140625 " clip-rule="nonzero"/></clipPath><clipPath id="id5"><path d="M 0 286 L 974.761719 286 L 974.761719 374.921875 L 0 374.921875 Z M 0 286 " clip-rule="nonzero"/></clipPath></defs><g clip-path="url(#id1)"><path fill="rgb(18.429565%, 21.179199%, 46.269226%)" d="M -653.566406 351.246094 C -519.886719 375.6875 -384.300781 395.925781 -247.949219 384.46875 C -116.179688 373.394531 5.273438 309.621094 137.808594 305.039062 C 272.25 300.453125 407.074219 324.132812 537.3125 354.300781 C 756.164062 404.710938 929.5625 342.84375 1039.179688 279.070312 L 1039.179688 -1052.199219 L -870.503906 -1052.199219 L -870.503906 306.183594 C -799.082031 324.894531 -725.367188 338.261719 -653.566406 351.246094 " fill-opacity="1" fill-rule="nonzero"/></g><path fill="rgb(100%, 100%, 100%)" d="M 79.210938 61.246094 L 79.210938 63.863281 L 65.273438 63.863281 L 65.273438 75.679688 L 77.042969 75.679688 L 77.042969 78.296875 L 65.273438 78.296875 L 65.273438 92.863281 L 62.113281 92.863281 L 62.113281 61.246094 Z M 79.210938 61.246094 " fill-opacity="1" fill-rule="nonzero"/><path fill="rgb(100%, 100%, 100%)" d="M 95.222656 93.222656 C 92.898438 93.222656 90.804688 92.707031 88.949219 91.667969 C 87.101562 90.625 85.636719 89.144531 84.5625 87.234375 C 83.492188 85.316406 82.957031 83.078125 82.957031 80.519531 C 82.957031 77.953125 83.5 75.71875 84.582031 73.804688 C 85.671875 71.886719 87.152344 70.410156 89.019531 69.371094 C 90.890625 68.328125 92.988281 67.804688 95.3125 67.804688 C 97.636719 67.804688 99.738281 68.328125 101.621094 69.371094 C 103.507812 70.410156 104.988281 71.886719 106.054688 73.804688 C 107.121094 75.71875 107.65625 77.953125 107.65625 80.519531 C 107.65625 83.046875 107.117188 85.277344 106.03125 87.210938 C 104.949219 89.136719 103.453125 90.625 101.554688 91.667969 C 99.65625 92.707031 97.546875 93.222656 95.222656 93.222656 Z M 95.222656 90.472656 C 96.847656 90.472656 98.351562 90.105469 99.738281 89.367188 C 101.128906 88.621094 102.253906 87.503906 103.109375 86.015625 C 103.972656 84.519531 104.410156 82.683594 104.410156 80.519531 C 104.410156 78.347656 103.980469 76.511719 103.132812 75.023438 C 102.289062 73.527344 101.171875 72.410156 99.78125 71.671875 C 98.398438 70.9375 96.894531 70.566406 95.269531 70.566406 C 93.636719 70.566406 92.125 70.9375 90.746094 71.671875 C 89.359375 72.410156 88.25 73.527344 87.414062 75.023438 C 86.585938 76.511719 86.175781 78.347656 86.175781 80.519531 C 86.175781 82.683594 86.585938 84.519531 87.414062 86.015625 C 88.25 87.503906 89.351562 88.621094 90.722656 89.367188 C 92.089844 90.105469 93.589844 90.472656 95.222656 90.472656 Z M 95.222656 90.472656 " fill-opacity="1" fill-rule="nonzero"/><path fill="rgb(100%, 100%, 100%)" d="M 116.613281 72.554688 C 117.3125 71.011719 118.375 69.820312 119.804688 68.976562 C 121.234375 68.136719 122.992188 67.710938 125.074219 67.710938 L 125.074219 71.019531 L 124.21875 71.019531 C 121.921875 71.019531 120.078125 71.636719 118.6875 72.867188 C 117.304688 74.105469 116.613281 76.167969 116.613281 79.0625 L 116.613281 92.863281 L 113.453125 92.863281 L 113.453125 68.164062 L 116.613281 68.164062 Z M 116.613281 72.554688 " fill-opacity="1" fill-rule="nonzero"/><path fill="rgb(100%, 100%, 100%)" d="M 159.230469 67.710938 C 162.121094 67.710938 164.476562 68.625 166.304688 70.453125 C 168.132812 72.277344 169.046875 74.917969 169.046875 78.386719 L 169.046875 92.863281 L 165.921875 92.863281 L 165.921875 78.746094 C 165.921875 76.0625 165.269531 74.015625 163.96875 72.597656 C 162.675781 71.183594 160.914062 70.476562 158.679688 70.476562 C 156.359375 70.476562 154.507812 71.246094 153.117188 72.777344 C 151.730469 74.3125 151.039062 76.542969 151.039062 79.46875 L 151.039062 92.863281 L 147.914062 92.863281 L 147.914062 78.746094 C 147.914062 76.0625 147.265625 74.015625 145.972656 72.597656 C 144.679688 71.183594 142.898438 70.476562 140.636719 70.476562 C 138.3125 70.476562 136.453125 71.246094 135.0625 72.777344 C 133.675781 74.3125 132.988281 76.542969 132.988281 79.46875 L 132.988281 92.863281 L 129.828125 92.863281 L 129.828125 68.164062 L 132.988281 68.164062 L 132.988281 72.417969 C 133.777344 70.878906 134.894531 69.707031 136.335938 68.910156 C 137.78125 68.113281 139.394531 67.710938 141.179688 67.710938 C 143.320312 67.710938 145.199219 68.230469 146.808594 69.257812 C 148.425781 70.28125 149.59375 71.785156 150.316406 73.773438 C 150.976562 71.816406 152.113281 70.320312 153.726562 69.28125 C 155.339844 68.238281 157.179688 67.710938 159.230469 67.710938 Z M 159.230469 67.710938 " fill-opacity="1" fill-rule="nonzero"/><path fill="rgb(100%, 100%, 100%)" d="M 197.449219 68.164062 L 197.449219 92.863281 L 194.277344 92.863281 L 194.277344 88.519531 C 193.554688 90.0625 192.4375 91.238281 190.925781 92.050781 C 189.417969 92.863281 187.734375 93.269531 185.871094 93.269531 C 182.914062 93.269531 180.5 92.359375 178.628906 90.539062 C 176.757812 88.710938 175.828125 86.066406 175.828125 82.59375 L 175.828125 68.164062 L 178.941406 68.164062 L 178.941406 82.234375 C 178.941406 84.917969 179.613281 86.972656 180.953125 88.394531 C 182.296875 89.8125 184.132812 90.515625 186.457031 90.515625 C 188.839844 90.515625 190.738281 89.765625 192.15625 88.257812 C 193.570312 86.746094 194.277344 84.53125 194.277344 81.601562 L 194.277344 68.164062 Z M 197.449219 68.164062 " fill-opacity="1" fill-rule="nonzero"/><path fill="rgb(100%, 100%, 100%)" d="M 204.6875 59.386719 L 207.84375 59.386719 L 207.84375 92.863281 L 204.6875 92.863281 Z M 204.6875 59.386719 " fill-opacity="1" fill-rule="nonzero"/><path fill="rgb(100%, 100%, 100%)" d="M 213.589844 80.472656 C 213.589844 77.941406 214.089844 75.71875 215.101562 73.804688 C 216.117188 71.886719 217.519531 70.410156 219.308594 69.371094 C 221.105469 68.328125 223.136719 67.804688 225.402344 67.804688 C 227.75 67.804688 229.773438 68.351562 231.484375 69.4375 C 233.191406 70.523438 234.421875 71.90625 235.175781 73.589844 L 235.175781 68.164062 L 238.332031 68.164062 L 238.332031 92.863281 L 235.175781 92.863281 L 235.175781 87.390625 C 234.382812 89.078125 233.132812 90.472656 231.429688 91.578125 C 229.726562 92.675781 227.703125 93.222656 225.359375 93.222656 C 223.125 93.222656 221.105469 92.699219 219.308594 91.644531 C 217.519531 90.582031 216.117188 89.089844 215.101562 87.164062 C 214.089844 85.234375 213.589844 83 213.589844 80.472656 Z M 235.175781 80.519531 C 235.175781 78.527344 234.761719 76.777344 233.945312 75.273438 C 233.132812 73.761719 232.019531 72.597656 230.617188 71.785156 C 229.214844 70.972656 227.671875 70.566406 225.988281 70.566406 C 224.234375 70.566406 222.667969 70.960938 221.285156 71.742188 C 219.898438 72.523438 218.804688 73.664062 218 75.160156 C 217.203125 76.648438 216.804688 78.421875 216.804688 80.472656 C 216.804688 82.492188 217.203125 84.261719 218 85.789062 C 218.804688 87.308594 219.898438 88.472656 221.285156 89.273438 C 222.667969 90.074219 224.234375 90.472656 225.988281 90.472656 C 227.671875 90.472656 229.214844 90.066406 230.617188 89.253906 C 232.019531 88.433594 233.132812 87.273438 233.945312 85.765625 C 234.761719 84.253906 235.175781 82.503906 235.175781 80.519531 Z M 230.921875 60.886719 L 221.644531 66.269531 L 221.644531 63.820312 L 230.921875 58.03125 Z M 230.921875 60.886719 " fill-opacity="1" fill-rule="nonzero"/><path fill="rgb(100%, 100%, 100%)" d="M 248.734375 72.554688 C 249.433594 71.011719 250.5 69.820312 251.929688 68.976562 C 253.355469 68.136719 255.113281 67.710938 257.199219 67.710938 L 257.199219 71.019531 L 256.339844 71.019531 C 254.042969 71.019531 252.203125 71.636719 250.8125 72.867188 C 249.425781 74.105469 248.734375 76.167969 248.734375 79.0625 L 248.734375 92.863281 L 245.578125 92.863281 L 245.578125 68.164062 L 248.734375 68.164062 Z M 248.734375 72.554688 " fill-opacity="1" fill-rule="nonzero"/><path fill="rgb(100%, 100%, 100%)" d="M 263.53125 63.503906 C 262.898438 63.503906 262.355469 63.277344 261.90625 62.828125 C 261.453125 62.375 261.230469 61.820312 261.230469 61.15625 C 261.230469 60.488281 261.453125 59.933594 261.90625 59.5 C 262.355469 59.0625 262.898438 58.84375 263.53125 58.84375 C 264.164062 58.84375 264.703125 59.0625 265.15625 59.5 C 265.605469 59.933594 265.832031 60.488281 265.832031 61.15625 C 265.832031 61.820312 265.605469 62.375 265.15625 62.828125 C 264.703125 63.277344 264.164062 63.503906 263.53125 63.503906 Z M 265.109375 68.164062 L 265.109375 92.863281 L 261.949219 92.863281 L 261.949219 68.164062 Z M 265.109375 68.164062 " fill-opacity="1" fill-rule="nonzero"/><path fill="rgb(100%, 100%, 100%)" d="M 283.117188 93.222656 C 280.792969 93.222656 278.699219 92.707031 276.84375 91.667969 C 274.992188 90.625 273.53125 89.144531 272.453125 87.234375 C 271.386719 85.316406 270.851562 83.078125 270.851562 80.519531 C 270.851562 77.953125 271.394531 75.71875 272.476562 73.804688 C 273.566406 71.886719 275.042969 70.410156 276.910156 69.371094 C 278.785156 68.328125 280.882812 67.804688 283.207031 67.804688 C 285.53125 67.804688 287.632812 68.328125 289.515625 69.371094 C 291.402344 70.410156 292.878906 71.886719 293.949219 73.804688 C 295.015625 75.71875 295.550781 77.953125 295.550781 80.519531 C 295.550781 83.046875 295.011719 85.277344 293.925781 87.210938 C 292.84375 89.136719 291.347656 90.625 289.449219 91.667969 C 287.550781 92.707031 285.441406 93.222656 283.117188 93.222656 Z M 283.117188 90.472656 C 284.742188 90.472656 286.246094 90.105469 287.632812 89.367188 C 289.023438 88.621094 290.148438 87.503906 291.003906 86.015625 C 291.867188 84.519531 292.300781 82.683594 292.300781 80.519531 C 292.300781 78.347656 291.875 76.511719 291.027344 75.023438 C 290.183594 73.527344 289.066406 72.410156 287.675781 71.671875 C 286.292969 70.9375 284.789062 70.566406 283.164062 70.566406 C 281.53125 70.566406 280.019531 70.9375 278.636719 71.671875 C 277.253906 72.410156 276.144531 73.527344 275.308594 75.023438 C 274.480469 76.511719 274.070312 78.347656 274.070312 80.519531 C 274.070312 82.683594 274.480469 84.519531 275.308594 86.015625 C 276.144531 87.503906 277.246094 88.621094 278.617188 89.367188 C 279.984375 90.105469 281.484375 90.472656 283.117188 90.472656 Z M 283.117188 90.472656 " fill-opacity="1" fill-rule="nonzero"/><path fill="rgb(100%, 100%, 100%)" d="M 65.230469 131.542969 C 66.019531 129.890625 67.261719 128.511719 68.964844 127.414062 C 70.671875 126.308594 72.699219 125.753906 75.046875 125.753906 C 77.28125 125.753906 79.289062 126.277344 81.082031 127.324219 C 82.878906 128.359375 84.28125 129.839844 85.289062 131.757812 C 86.304688 133.667969 86.8125 135.890625 86.8125 138.425781 C 86.8125 140.953125 86.304688 143.183594 85.289062 145.117188 C 84.28125 147.042969 82.878906 148.535156 81.082031 149.59375 C 79.289062 150.652344 77.28125 151.175781 75.046875 151.175781 C 72.726562 151.175781 70.707031 150.628906 68.984375 149.527344 C 67.269531 148.421875 66.019531 147.042969 65.230469 145.386719 L 65.230469 162.480469 L 62.113281 162.480469 L 62.113281 126.113281 L 65.230469 126.113281 Z M 83.597656 138.425781 C 83.597656 136.371094 83.199219 134.601562 82.402344 133.109375 C 81.605469 131.617188 80.507812 130.476562 79.117188 129.691406 C 77.734375 128.910156 76.164062 128.519531 74.414062 128.519531 C 72.726562 128.519531 71.179688 128.925781 69.777344 129.738281 C 68.378906 130.550781 67.265625 131.710938 66.449219 133.222656 C 65.636719 134.730469 65.230469 136.480469 65.230469 138.46875 C 65.230469 140.457031 65.636719 142.207031 66.449219 143.71875 C 67.265625 145.222656 68.378906 146.386719 69.777344 147.203125 C 71.179688 148.015625 72.726562 148.421875 74.414062 148.421875 C 76.164062 148.421875 77.734375 148.023438 79.117188 147.226562 C 80.507812 146.421875 81.605469 145.261719 82.402344 143.738281 C 83.199219 142.214844 83.597656 140.441406 83.597656 138.425781 Z M 83.597656 138.425781 " fill-opacity="1" fill-rule="nonzero"/><path fill="rgb(100%, 100%, 100%)" d="M 91.191406 138.425781 C 91.191406 135.890625 91.691406 133.667969 92.703125 131.757812 C 93.71875 129.839844 95.121094 128.359375 96.910156 127.324219 C 98.707031 126.277344 100.738281 125.753906 103.003906 125.753906 C 105.351562 125.753906 107.375 126.300781 109.085938 127.390625 C 110.792969 128.472656 112.023438 129.859375 112.777344 131.542969 L 112.777344 126.113281 L 115.933594 126.113281 L 115.933594 150.8125 L 112.777344 150.8125 L 112.777344 145.34375 C 111.984375 147.027344 110.738281 148.421875 109.03125 149.527344 C 107.328125 150.628906 105.304688 151.175781 102.960938 151.175781 C 100.726562 151.175781 98.707031 150.652344 96.910156 149.59375 C 95.121094 148.535156 93.71875 147.042969 92.703125 145.117188 C 91.691406 143.183594 91.191406 140.953125 91.191406 138.425781 Z M 112.777344 138.46875 C 112.777344 136.480469 112.363281 134.730469 111.546875 133.222656 C 110.734375 131.710938 109.621094 130.550781 108.21875 129.738281 C 106.820312 128.925781 105.277344 128.519531 103.589844 128.519531 C 101.835938 128.519531 100.269531 128.910156 98.886719 129.691406 C 97.5 130.476562 96.40625 131.617188 95.601562 133.109375 C 94.804688 134.601562 94.40625 136.371094 94.40625 138.425781 C 94.40625 140.441406 94.804688 142.214844 95.601562 143.738281 C 96.40625 145.261719 97.5 146.421875 98.886719 147.226562 C 100.269531 148.023438 101.835938 148.421875 103.589844 148.421875 C 105.277344 148.421875 106.820312 148.015625 108.21875 147.203125 C 109.621094 146.386719 110.734375 145.222656 111.546875 143.71875 C 112.363281 142.207031 112.777344 140.457031 112.777344 138.46875 Z M 112.777344 138.46875 " fill-opacity="1" fill-rule="nonzero"/><path fill="rgb(100%, 100%, 100%)" d="M 126.335938 130.503906 C 127.039062 128.964844 128.101562 127.769531 129.53125 126.925781 C 130.957031 126.085938 132.714844 125.664062 134.800781 125.664062 L 134.800781 128.96875 L 133.941406 128.96875 C 131.644531 128.96875 129.804688 129.585938 128.414062 130.820312 C 127.027344 132.054688 126.335938 134.121094 126.335938 137.015625 L 126.335938 150.8125 L 123.179688 150.8125 L 123.179688 126.113281 L 126.335938 126.113281 Z M 126.335938 130.503906 " fill-opacity="1" fill-rule="nonzero"/><path fill="rgb(100%, 100%, 100%)" d="M 138.097656 138.425781 C 138.097656 135.890625 138.597656 133.667969 139.609375 131.757812 C 140.625 129.839844 142.027344 128.359375 143.816406 127.324219 C 145.613281 126.277344 147.644531 125.753906 149.910156 125.753906 C 152.257812 125.753906 154.28125 126.300781 155.992188 127.390625 C 157.699219 128.472656 158.929688 129.859375 159.679688 131.542969 L 159.679688 126.113281 L 162.839844 126.113281 L 162.839844 150.8125 L 159.679688 150.8125 L 159.679688 145.34375 C 158.890625 147.027344 157.640625 148.421875 155.933594 149.527344 C 154.234375 150.628906 152.210938 151.175781 149.863281 151.175781 C 147.628906 151.175781 145.613281 150.652344 143.816406 149.59375 C 142.027344 148.535156 140.625 147.042969 139.609375 145.117188 C 138.597656 143.183594 138.097656 140.953125 138.097656 138.425781 Z M 159.679688 138.46875 C 159.679688 136.480469 159.269531 134.730469 158.453125 133.222656 C 157.640625 131.710938 156.527344 130.550781 155.121094 129.738281 C 153.722656 128.925781 152.179688 128.519531 150.496094 128.519531 C 148.742188 128.519531 147.175781 128.910156 145.792969 129.691406 C 144.40625 130.476562 143.3125 131.617188 142.507812 133.109375 C 141.710938 134.601562 141.3125 136.371094 141.3125 138.425781 C 141.3125 140.441406 141.710938 142.214844 142.507812 143.738281 C 143.3125 145.261719 144.40625 146.421875 145.792969 147.226562 C 147.175781 148.023438 148.742188 148.421875 150.496094 148.421875 C 152.179688 148.421875 153.722656 148.015625 155.121094 147.203125 C 156.527344 146.386719 157.640625 145.222656 158.453125 143.71875 C 159.269531 142.207031 159.679688 140.457031 159.679688 138.46875 Z M 159.679688 138.46875 " fill-opacity="1" fill-rule="nonzero"/><path fill="rgb(100%, 100%, 100%)" d="M 181.023438 138.425781 C 181.023438 135.890625 181.523438 133.667969 182.535156 131.757812 C 183.550781 129.839844 184.949219 128.359375 186.742188 127.324219 C 188.539062 126.277344 190.570312 125.753906 192.835938 125.753906 C 195.183594 125.753906 197.207031 126.300781 198.917969 127.390625 C 200.625 128.472656 201.851562 129.859375 202.605469 131.542969 L 202.605469 126.113281 L 205.765625 126.113281 L 205.765625 150.8125 L 202.605469 150.8125 L 202.605469 145.34375 C 201.816406 147.027344 200.566406 148.421875 198.859375 149.527344 C 197.160156 150.628906 195.136719 151.175781 192.789062 151.175781 C 190.554688 151.175781 188.539062 150.652344 186.742188 149.59375 C 184.949219 148.535156 183.550781 147.042969 182.535156 145.117188 C 181.523438 143.183594 181.023438 140.953125 181.023438 138.425781 Z M 202.605469 138.46875 C 202.605469 136.480469 202.195312 134.730469 201.375 133.222656 C 200.5625 131.710938 199.453125 130.550781 198.046875 129.738281 C 196.648438 128.925781 195.105469 128.519531 193.421875 128.519531 C 191.667969 128.519531 190.097656 128.910156 188.714844 129.691406 C 187.332031 130.476562 186.238281 131.617188 185.433594 133.109375 C 184.636719 134.601562 184.238281 136.371094 184.238281 138.425781 C 184.238281 140.441406 184.636719 142.214844 185.433594 143.738281 C 186.238281 145.261719 187.332031 146.421875 188.714844 147.226562 C 190.097656 148.023438 191.667969 148.421875 193.421875 148.421875 C 195.105469 148.421875 196.648438 148.015625 198.046875 147.203125 C 199.453125 146.386719 200.5625 145.222656 201.375 143.71875 C 202.195312 142.207031 202.605469 140.457031 202.605469 138.46875 Z M 202.605469 138.46875 " fill-opacity="1" fill-rule="nonzero"/><path fill="rgb(100%, 100%, 100%)" d="M 223.945312 138.46875 C 223.945312 135.90625 224.457031 133.667969 225.480469 131.757812 C 226.511719 129.839844 227.929688 128.359375 229.734375 127.324219 C 231.546875 126.277344 233.617188 125.753906 235.941406 125.753906 C 238.988281 125.753906 241.496094 126.511719 243.46875 128.023438 C 245.445312 129.527344 246.71875 131.578125 247.292969 134.171875 L 243.894531 134.171875 C 243.472656 132.386719 242.558594 130.996094 241.15625 129.984375 C 239.753906 128.976562 238.015625 128.472656 235.941406 128.472656 C 234.277344 128.472656 232.785156 128.851562 231.460938 129.601562 C 230.136719 130.355469 229.085938 131.480469 228.3125 132.976562 C 227.546875 134.464844 227.164062 136.296875 227.164062 138.46875 C 227.164062 140.636719 227.546875 142.476562 228.3125 143.988281 C 229.085938 145.496094 230.136719 146.625 231.460938 147.382812 C 232.785156 148.136719 234.277344 148.511719 235.941406 148.511719 C 238.015625 148.511719 239.753906 148.011719 241.15625 147 C 242.558594 145.984375 243.472656 144.570312 243.894531 142.757812 L 247.292969 142.757812 C 246.71875 145.292969 245.4375 147.332031 243.445312 148.875 C 241.457031 150.40625 238.957031 151.175781 235.941406 151.175781 C 233.617188 151.175781 231.546875 150.65625 229.734375 149.617188 C 227.929688 148.574219 226.511719 147.097656 225.480469 145.183594 C 224.457031 143.265625 223.945312 141.027344 223.945312 138.46875 Z M 223.945312 138.46875 " fill-opacity="1" fill-rule="nonzero"/><path fill="rgb(100%, 100%, 100%)" d="M 263.9375 151.175781 C 261.613281 151.175781 259.523438 150.65625 257.664062 149.617188 C 255.816406 148.574219 254.351562 147.097656 253.277344 145.183594 C 252.207031 143.265625 251.675781 141.027344 251.675781 138.46875 C 251.675781 135.90625 252.214844 133.667969 253.300781 131.757812 C 254.386719 129.839844 255.867188 128.359375 257.734375 127.324219 C 259.605469 126.277344 261.707031 125.753906 264.03125 125.753906 C 266.355469 125.753906 268.457031 126.277344 270.335938 127.324219 C 272.222656 128.359375 273.703125 129.839844 274.769531 131.757812 C 275.835938 133.667969 276.375 135.90625 276.375 138.46875 C 276.375 140.996094 275.832031 143.230469 274.75 145.160156 C 273.664062 147.089844 272.171875 148.574219 270.269531 149.617188 C 268.375 150.65625 266.261719 151.175781 263.9375 151.175781 Z M 263.9375 148.421875 C 265.5625 148.421875 267.066406 148.054688 268.453125 147.316406 C 269.84375 146.570312 270.96875 145.453125 271.828125 143.964844 C 272.691406 142.46875 273.125 140.636719 273.125 138.46875 C 273.125 136.296875 272.699219 134.464844 271.847656 132.976562 C 271.003906 131.480469 269.886719 130.363281 268.496094 129.625 C 267.113281 128.886719 265.609375 128.519531 263.984375 128.519531 C 262.351562 128.519531 260.84375 128.886719 259.460938 129.625 C 258.074219 130.363281 256.964844 131.480469 256.132812 132.976562 C 255.300781 134.464844 254.890625 136.296875 254.890625 138.46875 C 254.890625 140.636719 255.300781 142.46875 256.132812 143.964844 C 256.964844 145.453125 258.066406 146.570312 259.4375 147.316406 C 260.804688 148.054688 262.304688 148.421875 263.9375 148.421875 Z M 263.9375 148.421875 " fill-opacity="1" fill-rule="nonzero"/><path fill="rgb(100%, 100%, 100%)" d="M 311.574219 125.664062 C 314.460938 125.664062 316.820312 126.578125 318.648438 128.40625 C 320.476562 130.226562 321.390625 132.871094 321.390625 136.335938 L 321.390625 150.8125 L 318.265625 150.8125 L 318.265625 136.699219 C 318.265625 134.011719 317.613281 131.964844 316.3125 130.550781 C 315.015625 129.136719 313.253906 128.429688 311.019531 128.429688 C 308.703125 128.429688 306.847656 129.195312 305.457031 130.730469 C 304.074219 132.265625 303.382812 134.496094 303.382812 137.421875 L 303.382812 150.8125 L 300.257812 150.8125 L 300.257812 136.699219 C 300.257812 134.011719 299.605469 131.964844 298.316406 130.550781 C 297.019531 129.136719 295.242188 128.429688 292.976562 128.429688 C 290.652344 128.429688 288.796875 129.195312 287.40625 130.730469 C 286.019531 132.265625 285.328125 134.496094 285.328125 137.421875 L 285.328125 150.8125 L 282.167969 150.8125 L 282.167969 126.113281 L 285.328125 126.113281 L 285.328125 130.367188 C 286.117188 128.828125 287.234375 127.65625 288.679688 126.859375 C 290.125 126.0625 291.738281 125.664062 293.519531 125.664062 C 295.664062 125.664062 297.539062 126.179688 299.148438 127.210938 C 300.765625 128.234375 301.9375 129.738281 302.660156 131.722656 C 303.320312 129.769531 304.457031 128.269531 306.066406 127.230469 C 307.683594 126.1875 309.519531 125.664062 311.574219 125.664062 Z M 311.574219 125.664062 " fill-opacity="1" fill-rule="nonzero"/><path fill="rgb(100%, 100%, 100%)" d="M 331.511719 131.542969 C 332.300781 129.890625 333.542969 128.511719 335.246094 127.414062 C 336.953125 126.308594 338.980469 125.753906 341.328125 125.753906 C 343.558594 125.753906 345.570312 126.277344 347.363281 127.324219 C 349.160156 128.359375 350.5625 129.839844 351.570312 131.757812 C 352.585938 133.667969 353.09375 135.890625 353.09375 138.425781 C 353.09375 140.953125 352.585938 143.183594 351.570312 145.117188 C 350.5625 147.042969 349.160156 148.535156 347.363281 149.59375 C 345.570312 150.652344 343.558594 151.175781 341.328125 151.175781 C 339.007812 151.175781 336.988281 150.628906 335.265625 149.527344 C 333.550781 148.421875 332.300781 147.042969 331.511719 145.386719 L 331.511719 162.480469 L 328.394531 162.480469 L 328.394531 126.113281 L 331.511719 126.113281 Z M 349.878906 138.425781 C 349.878906 136.371094 349.480469 134.601562 348.683594 133.109375 C 347.882812 131.617188 346.789062 130.476562 345.398438 129.691406 C 344.015625 128.910156 342.445312 128.519531 340.695312 128.519531 C 339.007812 128.519531 337.460938 128.925781 336.058594 129.738281 C 334.65625 130.550781 333.546875 131.710938 332.726562 133.222656 C 331.917969 134.730469 331.511719 136.480469 331.511719 138.46875 C 331.511719 140.457031 331.917969 142.207031 332.726562 143.71875 C 333.546875 145.222656 334.65625 146.386719 336.058594 147.203125 C 337.460938 148.015625 339.007812 148.421875 340.695312 148.421875 C 342.445312 148.421875 344.015625 148.023438 345.398438 147.226562 C 346.789062 146.421875 347.882812 145.261719 348.683594 143.738281 C 349.480469 142.214844 349.878906 140.441406 349.878906 138.425781 Z M 349.878906 138.425781 " fill-opacity="1" fill-rule="nonzero"/><path fill="rgb(100%, 100%, 100%)" d="M 362.085938 130.503906 C 362.785156 128.964844 363.851562 127.769531 365.28125 126.925781 C 366.707031 126.085938 368.464844 125.664062 370.550781 125.664062 L 370.550781 128.96875 L 369.691406 128.96875 C 367.394531 128.96875 365.554688 129.585938 364.164062 130.820312 C 362.777344 132.054688 362.085938 134.121094 362.085938 137.015625 L 362.085938 150.8125 L 358.925781 150.8125 L 358.925781 126.113281 L 362.085938 126.113281 Z M 362.085938 130.503906 " fill-opacity="1" fill-rule="nonzero"/><path fill="rgb(100%, 100%, 100%)" d="M 373.847656 138.425781 C 373.847656 135.890625 374.347656 133.667969 375.359375 131.757812 C 376.375 129.839844 377.777344 128.359375 379.566406 127.324219 C 381.363281 126.277344 383.394531 125.753906 385.660156 125.753906 C 388.007812 125.753906 390.03125 126.300781 391.742188 127.390625 C 393.449219 128.472656 394.679688 129.859375 395.429688 131.542969 L 395.429688 126.113281 L 398.589844 126.113281 L 398.589844 150.8125 L 395.429688 150.8125 L 395.429688 145.34375 C 394.640625 147.027344 393.390625 148.421875 391.683594 149.527344 C 389.984375 150.628906 387.960938 151.175781 385.613281 151.175781 C 383.378906 151.175781 381.363281 150.652344 379.566406 149.59375 C 377.777344 148.535156 376.375 147.042969 375.359375 145.117188 C 374.347656 143.183594 373.847656 140.953125 373.847656 138.425781 Z M 395.429688 138.46875 C 395.429688 136.480469 395.019531 134.730469 394.203125 133.222656 C 393.390625 131.710938 392.277344 130.550781 390.871094 129.738281 C 389.472656 128.925781 387.929688 128.519531 386.246094 128.519531 C 384.492188 128.519531 382.921875 128.910156 381.542969 129.691406 C 380.15625 130.476562 379.0625 131.617188 378.257812 133.109375 C 377.460938 134.601562 377.0625 136.371094 377.0625 138.425781 C 377.0625 140.441406 377.460938 142.214844 378.257812 143.738281 C 379.0625 145.261719 380.15625 146.421875 381.542969 147.226562 C 382.921875 148.023438 384.492188 148.421875 386.246094 148.421875 C 387.929688 148.421875 389.472656 148.015625 390.871094 147.203125 C 392.277344 146.386719 393.390625 145.222656 394.203125 143.71875 C 395.019531 142.207031 395.429688 140.457031 395.429688 138.46875 Z M 395.429688 138.46875 " fill-opacity="1" fill-rule="nonzero"/><path fill="rgb(100%, 100%, 100%)" d="M 416.769531 138.425781 C 416.769531 135.890625 417.28125 133.667969 418.304688 131.757812 C 419.335938 129.839844 420.746094 128.359375 422.535156 127.324219 C 424.332031 126.277344 426.363281 125.753906 428.628906 125.753906 C 430.796875 125.753906 432.75 126.285156 434.496094 127.34375 C 436.25 128.398438 437.535156 129.769531 438.355469 131.453125 L 438.355469 117.335938 L 441.515625 117.335938 L 441.515625 150.8125 L 438.355469 150.8125 L 438.355469 145.296875 C 437.601562 147.011719 436.363281 148.421875 434.644531 149.527344 C 432.921875 150.628906 430.902344 151.175781 428.585938 151.175781 C 426.320312 151.175781 424.289062 150.652344 422.492188 149.59375 C 420.699219 148.535156 419.296875 147.042969 418.285156 145.117188 C 417.273438 143.183594 416.769531 140.953125 416.769531 138.425781 Z M 438.355469 138.46875 C 438.355469 136.480469 437.945312 134.730469 437.125 133.222656 C 436.3125 131.710938 435.203125 130.550781 433.796875 129.738281 C 432.398438 128.925781 430.855469 128.519531 429.171875 128.519531 C 427.417969 128.519531 425.847656 128.910156 424.464844 129.691406 C 423.082031 130.476562 421.988281 131.617188 421.183594 133.109375 C 420.382812 134.601562 419.988281 136.371094 419.988281 138.425781 C 419.988281 140.441406 420.382812 142.214844 421.183594 143.738281 C 421.988281 145.261719 423.082031 146.421875 424.464844 147.226562 C 425.847656 148.023438 427.417969 148.421875 429.171875 148.421875 C 430.855469 148.421875 432.398438 148.015625 433.796875 147.203125 C 435.203125 146.386719 436.3125 145.222656 437.125 143.71875 C 437.945312 142.207031 438.355469 140.457031 438.355469 138.46875 Z M 438.355469 138.46875 " fill-opacity="1" fill-rule="nonzero"/><path fill="rgb(100%, 100%, 100%)" d="M 471.101562 137.195312 C 471.101562 138.285156 471.070312 139.117188 471.007812 139.6875 L 450.519531 139.6875 C 450.609375 141.554688 451.058594 143.152344 451.871094 144.484375 C 452.691406 145.808594 453.761719 146.8125 455.089844 147.496094 C 456.410156 148.175781 457.859375 148.511719 459.433594 148.511719 C 461.476562 148.511719 463.203125 148.015625 464.601562 147.023438 C 466.003906 146.023438 466.9375 144.675781 467.386719 142.984375 L 470.738281 142.984375 C 470.136719 145.398438 468.847656 147.371094 466.867188 148.894531 C 464.898438 150.417969 462.417969 151.175781 459.433594 151.175781 C 457.109375 151.175781 455.023438 150.65625 453.183594 149.617188 C 451.34375 148.574219 449.902344 147.097656 448.859375 145.183594 C 447.820312 143.265625 447.304688 141.027344 447.304688 138.46875 C 447.304688 135.90625 447.8125 133.660156 448.835938 131.734375 C 449.867188 129.800781 451.300781 128.324219 453.136719 127.300781 C 454.980469 126.269531 457.078125 125.753906 459.433594 125.753906 C 461.785156 125.753906 463.84375 126.269531 465.605469 127.300781 C 467.371094 128.324219 468.730469 129.703125 469.679688 131.441406 C 470.625 133.171875 471.101562 135.089844 471.101562 137.195312 Z M 467.894531 137.105469 C 467.921875 135.269531 467.550781 133.707031 466.777344 132.410156 C 466.011719 131.109375 464.960938 130.128906 463.628906 129.464844 C 462.304688 128.804688 460.859375 128.472656 459.296875 128.472656 C 456.941406 128.472656 454.933594 129.226562 453.273438 130.730469 C 451.617188 132.234375 450.699219 134.359375 450.519531 137.105469 Z M 467.894531 137.105469 " fill-opacity="1" fill-rule="nonzero"/><g clip-path="url(#id2)"><path fill="rgb(9.408569%, 9.01947%, 27.449036%)" d="M 609.402344 334.28125 L 759.457031 383.960938 L 759.457031 171.601562 L 713.269531 239.960938 L 609.402344 219.9375 L 609.402344 334.28125 " fill-opacity="1" fill-rule="nonzero"/></g><g clip-path="url(#id3)"><path fill="rgb(9.408569%, 9.01947%, 27.449036%)" d="M 732.199219 127.929688 L 689.746094 101.414062 L 551.816406 122.578125 L 548.261719 120.230469 L 600.972656 155.445312 L 556.722656 203.777344 L 710.785156 231.089844 L 760.285156 159.035156 L 621.109375 153.441406 L 734.378906 129.3125 L 884.433594 129.3125 L 761.769531 157.757812 L 815 219.347656 L 937.351562 174.882812 L 891.167969 127.757812 L 890.683594 127.859375 L 922.394531 65.996094 L 770.925781 69.582031 L 732.199219 127.929688 " fill-opacity="1" fill-rule="nonzero"/></g><g clip-path="url(#id4)"><path fill="rgb(9.408569%, 9.01947%, 27.449036%)" d="M 767.503906 387.550781 L 890.40625 313.496094 L 892.375 197.667969 L 810.511719 227.5 L 767.503906 171.601562 L 767.503906 387.550781 " fill-opacity="1" fill-rule="nonzero"/></g><g clip-path="url(#id5)"><path fill="rgb(100%, 100%, 100%)" d="M 1477.734375 323.347656 C 1344.054688 298.90625 1208.46875 278.664062 1072.117188 290.121094 C 940.351562 301.195312 818.894531 364.972656 686.363281 369.554688 C 551.921875 374.136719 417.097656 350.460938 286.855469 320.289062 C 68.007812 269.882812 -105.390625 331.746094 -215.007812 395.523438 L -215.007812 1726.792969 L 1694.675781 1726.792969 L 1694.675781 368.410156 C 1623.25 349.695312 1549.539062 336.328125 1477.734375 323.347656 " fill-opacity="1" fill-rule="nonzero"/></g><path fill="rgb(100%, 100%, 100%)" d="M 84.636719 190.195312 C 84.636719 191.882812 84.234375 193.464844 83.441406 194.945312 C 82.640625 196.421875 81.390625 197.613281 79.683594 198.523438 C 77.980469 199.425781 75.835938 199.878906 73.238281 199.878906 L 67.949219 199.878906 L 67.949219 211.996094 L 61.617188 211.996094 L 61.617188 180.425781 L 73.238281 180.425781 C 75.683594 180.425781 77.765625 180.847656 79.480469 181.6875 C 81.199219 182.53125 82.492188 183.695312 83.351562 185.175781 C 84.207031 186.648438 84.636719 188.324219 84.636719 190.195312 Z M 72.96875 194.765625 C 74.710938 194.765625 76.007812 194.367188 76.851562 193.570312 C 77.699219 192.765625 78.125 191.640625 78.125 190.195312 C 78.125 187.121094 76.40625 185.582031 72.96875 185.582031 L 67.949219 185.582031 L 67.949219 194.765625 Z M 72.96875 194.765625 " fill-opacity="1" fill-rule="nonzero"/><path fill="rgb(100%, 100%, 100%)" d="M 87.484375 199.371094 C 87.484375 196.84375 87.984375 194.601562 88.996094 192.644531 C 90.011719 190.679688 91.382812 189.175781 93.113281 188.121094 C 94.851562 187.058594 96.792969 186.527344 98.9375 186.527344 C 100.800781 186.527344 102.433594 186.90625 103.832031 187.65625 C 105.238281 188.410156 106.363281 189.359375 107.207031 190.511719 L 107.207031 186.933594 L 113.582031 186.933594 L 113.582031 211.996094 L 107.207031 211.996094 L 107.207031 208.328125 C 106.394531 209.511719 105.269531 210.484375 103.832031 211.25 C 102.402344 212.019531 100.753906 212.402344 98.890625 212.402344 C 96.773438 212.402344 94.851562 211.859375 93.113281 210.777344 C 91.382812 209.6875 90.011719 208.15625 88.996094 206.183594 C 87.984375 204.207031 87.484375 201.9375 87.484375 199.371094 Z M 107.207031 199.472656 C 107.207031 197.929688 106.90625 196.609375 106.304688 195.511719 C 105.699219 194.40625 104.886719 193.558594 103.855469 192.972656 C 102.832031 192.386719 101.734375 192.089844 100.5625 192.089844 C 99.386719 192.089844 98.296875 192.378906 97.300781 192.949219 C 96.308594 193.523438 95.5 194.359375 94.886719 195.464844 C 94.265625 196.566406 93.960938 197.867188 93.960938 199.371094 C 93.960938 200.882812 94.265625 202.207031 94.886719 203.339844 C 95.5 204.46875 96.3125 205.335938 97.324219 205.9375 C 98.335938 206.539062 99.414062 206.839844 100.5625 206.839844 C 101.734375 206.839844 102.832031 206.546875 103.855469 205.960938 C 104.886719 205.371094 105.699219 204.53125 106.304688 203.429688 C 106.90625 202.324219 107.207031 201.003906 107.207031 199.472656 Z M 107.207031 199.472656 " fill-opacity="1" fill-rule="nonzero"/><path fill="rgb(100%, 100%, 100%)" d="M 118.148438 199.472656 C 118.148438 196.875 118.675781 194.609375 119.730469 192.667969 C 120.789062 190.722656 122.25 189.210938 124.117188 188.144531 C 125.992188 187.066406 128.136719 186.527344 130.550781 186.527344 C 133.65625 186.527344 136.226562 187.308594 138.257812 188.863281 C 140.292969 190.417969 141.660156 192.59375 142.351562 195.398438 L 135.527344 195.398438 C 135.164062 194.308594 134.550781 193.453125 133.6875 192.835938 C 132.828125 192.222656 131.769531 191.910156 130.503906 191.910156 C 128.691406 191.910156 127.257812 192.570312 126.207031 193.886719 C 125.152344 195.195312 124.625 197.054688 124.625 199.472656 C 124.625 201.847656 125.152344 203.695312 126.207031 205.011719 C 127.257812 206.320312 128.691406 206.972656 130.503906 206.972656 C 133.070312 206.972656 134.742188 205.828125 135.527344 203.53125 L 142.351562 203.53125 C 141.660156 206.25 140.289062 208.40625 138.234375 210.007812 C 136.1875 211.605469 133.625 212.402344 130.550781 212.402344 C 128.136719 212.402344 125.992188 211.867188 124.117188 210.800781 C 122.25 209.726562 120.789062 208.214844 119.730469 206.273438 C 118.675781 204.328125 118.148438 202.0625 118.148438 199.472656 Z M 118.148438 199.472656 " fill-opacity="1" fill-rule="nonzero"/><path fill="rgb(100%, 100%, 100%)" d="M 158.140625 212.402344 C 155.726562 212.402344 153.550781 211.867188 151.621094 210.800781 C 149.691406 209.726562 148.179688 208.210938 147.074219 206.253906 C 145.972656 204.289062 145.425781 202.03125 145.425781 199.472656 C 145.425781 196.90625 145.988281 194.648438 147.117188 192.691406 C 148.25 190.726562 149.796875 189.210938 151.753906 188.144531 C 153.71875 187.066406 155.90625 186.527344 158.320312 186.527344 C 160.738281 186.527344 162.921875 187.066406 164.878906 188.144531 C 166.839844 189.210938 168.386719 190.726562 169.515625 192.691406 C 170.644531 194.648438 171.207031 196.90625 171.207031 199.472656 C 171.207031 202.03125 170.625 204.289062 169.46875 206.253906 C 168.3125 208.210938 166.742188 209.726562 164.765625 210.800781 C 162.792969 211.867188 160.585938 212.402344 158.140625 212.402344 Z M 158.140625 206.882812 C 159.285156 206.882812 160.359375 206.609375 161.367188 206.050781 C 162.382812 205.492188 163.191406 204.660156 163.792969 203.542969 C 164.394531 202.425781 164.699219 201.066406 164.699219 199.472656 C 164.699219 197.085938 164.066406 195.257812 162.8125 193.976562 C 161.5625 192.691406 160.039062 192.046875 158.230469 192.046875 C 156.417969 192.046875 154.902344 192.691406 153.683594 193.976562 C 152.464844 195.257812 151.855469 197.085938 151.855469 199.472656 C 151.855469 201.847656 152.449219 203.679688 153.640625 204.964844 C 154.828125 206.246094 156.328125 206.882812 158.140625 206.882812 Z M 158.140625 206.882812 " fill-opacity="1" fill-rule="nonzero"/><path fill="rgb(100%, 100%, 100%)" d="M 183.242188 192.136719 L 183.242188 204.253906 C 183.242188 205.105469 183.445312 205.71875 183.851562 206.09375 C 184.257812 206.472656 184.945312 206.660156 185.917969 206.660156 L 188.851562 206.660156 L 188.851562 211.996094 L 184.867188 211.996094 C 179.53125 211.996094 176.867188 209.402344 176.867188 204.210938 L 176.867188 192.136719 L 173.878906 192.136719 L 173.878906 186.933594 L 176.867188 186.933594 L 176.867188 180.742188 L 183.242188 180.742188 L 183.242188 186.933594 L 188.851562 186.933594 L 188.851562 192.136719 Z M 183.242188 192.136719 " fill-opacity="1" fill-rule="nonzero"/><path fill="rgb(100%, 100%, 100%)" d="M 216.714844 198.917969 C 216.714844 199.828125 216.652344 200.644531 216.53125 201.367188 L 198.21875 201.367188 C 198.367188 203.171875 199 204.589844 200.117188 205.621094 C 201.226562 206.644531 202.601562 207.15625 204.234375 207.15625 C 206.582031 207.15625 208.253906 206.144531 209.253906 204.121094 L 216.082031 204.121094 C 215.359375 206.535156 213.972656 208.519531 211.917969 210.078125 C 209.871094 211.628906 207.351562 212.402344 204.367188 212.402344 C 201.953125 212.402344 199.789062 211.867188 197.871094 210.800781 C 195.957031 209.726562 194.464844 208.210938 193.390625 206.253906 C 192.320312 204.289062 191.789062 202.03125 191.789062 199.472656 C 191.789062 196.875 192.3125 194.601562 193.367188 192.644531 C 194.429688 190.679688 195.90625 189.175781 197.800781 188.121094 C 199.703125 187.058594 201.890625 186.527344 204.367188 186.527344 C 206.753906 186.527344 208.886719 187.046875 210.765625 188.074219 C 212.652344 189.097656 214.117188 190.554688 215.15625 192.441406 C 216.195312 194.324219 216.714844 196.480469 216.714844 198.917969 Z M 210.15625 197.113281 C 210.125 195.488281 209.535156 194.1875 208.386719 193.207031 C 207.242188 192.222656 205.839844 191.730469 204.1875 191.730469 C 202.613281 191.730469 201.292969 192.210938 200.226562 193.164062 C 199.160156 194.113281 198.503906 195.429688 198.265625 197.113281 Z M 210.15625 197.113281 " fill-opacity="1" fill-rule="nonzero"/><path fill="rgb(100%, 100%, 100%)" d="M 230.460938 199.371094 C 230.460938 196.84375 230.964844 194.601562 231.972656 192.644531 C 232.988281 190.679688 234.367188 189.175781 236.113281 188.121094 C 237.867188 187.058594 239.816406 186.527344 241.960938 186.527344 C 243.585938 186.527344 245.132812 186.882812 246.609375 187.589844 C 248.089844 188.296875 249.265625 189.242188 250.140625 190.421875 L 250.140625 178.519531 L 256.558594 178.519531 L 256.558594 211.996094 L 250.140625 211.996094 L 250.140625 208.285156 C 249.355469 209.523438 248.253906 210.523438 246.835938 211.273438 C 245.417969 212.023438 243.777344 212.402344 241.914062 212.402344 C 239.800781 212.402344 237.867188 211.859375 236.113281 210.777344 C 234.367188 209.6875 232.988281 208.15625 231.972656 206.183594 C 230.964844 204.207031 230.460938 201.9375 230.460938 199.371094 Z M 250.183594 199.472656 C 250.183594 197.929688 249.882812 196.609375 249.28125 195.511719 C 248.679688 194.40625 247.863281 193.558594 246.835938 192.972656 C 245.808594 192.386719 244.710938 192.089844 243.539062 192.089844 C 242.367188 192.089844 241.277344 192.378906 240.277344 192.949219 C 239.285156 193.523438 238.480469 194.359375 237.863281 195.464844 C 237.246094 196.566406 236.9375 197.867188 236.9375 199.371094 C 236.9375 200.882812 237.246094 202.207031 237.863281 203.339844 C 238.480469 204.46875 239.292969 205.335938 240.300781 205.9375 C 241.316406 206.539062 242.394531 206.839844 243.539062 206.839844 C 244.710938 206.839844 245.808594 206.546875 246.835938 205.960938 C 247.863281 205.371094 248.679688 204.53125 249.28125 203.429688 C 249.882812 202.324219 250.183594 201.003906 250.183594 199.472656 Z M 250.183594 199.472656 " fill-opacity="1" fill-rule="nonzero"/><path fill="rgb(100%, 100%, 100%)" d="M 286.054688 198.917969 C 286.054688 199.828125 285.992188 200.644531 285.875 201.367188 L 267.5625 201.367188 C 267.710938 203.171875 268.34375 204.589844 269.457031 205.621094 C 270.566406 206.644531 271.941406 207.15625 273.574219 207.15625 C 275.921875 207.15625 277.59375 206.144531 278.597656 204.121094 L 285.421875 204.121094 C 284.699219 206.535156 283.3125 208.519531 281.257812 210.078125 C 279.210938 211.628906 276.695312 212.402344 273.710938 212.402344 C 271.296875 212.402344 269.128906 211.867188 267.210938 210.800781 C 265.296875 209.726562 263.804688 208.210938 262.730469 206.253906 C 261.664062 204.289062 261.128906 202.03125 261.128906 199.472656 C 261.128906 196.875 261.652344 194.601562 262.710938 192.644531 C 263.769531 190.679688 265.246094 189.175781 267.144531 188.121094 C 269.042969 187.058594 271.234375 186.527344 273.710938 186.527344 C 276.09375 186.527344 278.226562 187.046875 280.109375 188.074219 C 281.996094 189.097656 283.460938 190.554688 284.496094 192.441406 C 285.535156 194.324219 286.054688 196.480469 286.054688 198.917969 Z M 279.5 197.113281 C 279.46875 195.488281 278.878906 194.1875 277.726562 193.207031 C 276.582031 192.222656 275.183594 191.730469 273.53125 191.730469 C 271.957031 191.730469 270.636719 192.210938 269.570312 193.164062 C 268.5 194.113281 267.847656 195.429688 267.605469 197.113281 Z M 279.5 197.113281 " fill-opacity="1" fill-rule="nonzero"/><path fill="rgb(100%, 100%, 100%)" d="M 299.800781 199.371094 C 299.800781 196.84375 300.304688 194.601562 301.316406 192.644531 C 302.332031 190.679688 303.699219 189.175781 305.433594 188.121094 C 307.171875 187.058594 309.113281 186.527344 311.253906 186.527344 C 313.121094 186.527344 314.753906 186.90625 316.152344 187.65625 C 317.558594 188.410156 318.683594 189.359375 319.527344 190.511719 L 319.527344 186.933594 L 325.902344 186.933594 L 325.902344 211.996094 L 319.527344 211.996094 L 319.527344 208.328125 C 318.714844 209.511719 317.589844 210.484375 316.152344 211.25 C 314.722656 212.019531 313.074219 212.402344 311.210938 212.402344 C 309.09375 212.402344 307.171875 211.859375 305.433594 210.777344 C 303.699219 209.6875 302.332031 208.15625 301.316406 206.183594 C 300.304688 204.207031 299.800781 201.9375 299.800781 199.371094 Z M 319.527344 199.472656 C 319.527344 197.929688 319.222656 196.609375 318.625 195.511719 C 318.019531 194.40625 317.203125 193.558594 316.175781 192.972656 C 315.152344 192.386719 314.054688 192.089844 312.878906 192.089844 C 311.707031 192.089844 310.617188 192.378906 309.621094 192.949219 C 308.625 193.523438 307.820312 194.359375 307.203125 195.464844 C 306.585938 196.566406 306.28125 197.867188 306.28125 199.371094 C 306.28125 200.882812 306.585938 202.207031 307.203125 203.339844 C 307.820312 204.46875 308.632812 205.335938 309.640625 205.9375 C 310.65625 206.539062 311.734375 206.839844 312.878906 206.839844 C 314.054688 206.839844 315.152344 206.546875 316.175781 205.960938 C 317.203125 205.371094 318.019531 204.53125 318.625 203.429688 C 319.222656 202.324219 319.527344 201.003906 319.527344 199.472656 Z M 319.527344 199.472656 " fill-opacity="1" fill-rule="nonzero"/><path fill="rgb(100%, 100%, 100%)" d="M 330.46875 199.371094 C 330.46875 196.84375 330.972656 194.601562 331.980469 192.644531 C 332.996094 190.679688 334.378906 189.175781 336.125 188.121094 C 337.875 187.058594 339.824219 186.527344 341.96875 186.527344 C 343.59375 186.527344 345.140625 186.882812 346.617188 187.589844 C 348.097656 188.296875 349.273438 189.242188 350.148438 190.421875 L 350.148438 178.519531 L 356.570312 178.519531 L 356.570312 211.996094 L 350.148438 211.996094 L 350.148438 208.285156 C 349.363281 209.523438 348.265625 210.523438 346.84375 211.273438 C 345.425781 212.023438 343.789062 212.402344 341.921875 212.402344 C 339.808594 212.402344 337.875 211.859375 336.125 210.777344 C 334.378906 209.6875 332.996094 208.15625 331.980469 206.183594 C 330.972656 204.207031 330.46875 201.9375 330.46875 199.371094 Z M 350.195312 199.472656 C 350.195312 197.929688 349.890625 196.609375 349.289062 195.511719 C 348.6875 194.40625 347.871094 193.558594 346.84375 192.972656 C 345.820312 192.386719 344.722656 192.089844 343.546875 192.089844 C 342.375 192.089844 341.285156 192.378906 340.285156 192.949219 C 339.292969 193.523438 338.488281 194.359375 337.871094 195.464844 C 337.253906 196.566406 336.945312 197.867188 336.945312 199.371094 C 336.945312 200.882812 337.253906 202.207031 337.871094 203.339844 C 338.488281 204.46875 339.300781 205.335938 340.308594 205.9375 C 341.324219 206.539062 342.402344 206.839844 343.546875 206.839844 C 344.722656 206.839844 345.820312 206.546875 346.84375 205.960938 C 347.871094 205.371094 348.6875 204.53125 349.289062 203.429688 C 349.890625 202.324219 350.195312 201.003906 350.195312 199.472656 Z M 350.195312 199.472656 " fill-opacity="1" fill-rule="nonzero"/><path fill="rgb(100%, 100%, 100%)" d="M 386.0625 198.917969 C 386.0625 199.828125 386 200.644531 385.882812 201.367188 L 367.570312 201.367188 C 367.71875 203.171875 368.351562 204.589844 369.464844 205.621094 C 370.574219 206.644531 371.949219 207.15625 373.582031 207.15625 C 375.929688 207.15625 377.601562 206.144531 378.605469 204.121094 L 385.429688 204.121094 C 384.707031 206.535156 383.320312 208.519531 381.265625 210.078125 C 379.21875 211.628906 376.703125 212.402344 373.71875 212.402344 C 371.304688 212.402344 369.136719 211.867188 367.21875 210.800781 C 365.304688 209.726562 363.8125 208.210938 362.738281 206.253906 C 361.671875 204.289062 361.136719 202.03125 361.136719 199.472656 C 361.136719 196.875 361.660156 194.601562 362.714844 192.644531 C 363.777344 190.679688 365.253906 189.175781 367.152344 188.121094 C 369.050781 187.058594 371.242188 186.527344 373.71875 186.527344 C 376.101562 186.527344 378.234375 187.046875 380.117188 188.074219 C 382.003906 189.097656 383.464844 190.554688 384.503906 192.441406 C 385.542969 194.324219 386.0625 196.480469 386.0625 198.917969 Z M 379.507812 197.113281 C 379.476562 195.488281 378.886719 194.1875 377.734375 193.207031 C 376.589844 192.222656 375.191406 191.730469 373.539062 191.730469 C 371.964844 191.730469 370.644531 192.210938 369.578125 193.164062 C 368.507812 194.113281 367.851562 195.429688 367.613281 197.113281 Z M 379.507812 197.113281 " fill-opacity="1" fill-rule="nonzero"/><path fill="rgb(100%, 100%, 100%)" d="M 400.273438 212.402344 C 398.21875 212.402344 396.375 212.03125 394.742188 211.296875 C 393.117188 210.558594 391.828125 209.558594 390.875 208.292969 C 389.925781 207.023438 389.40625 205.617188 389.316406 204.074219 L 395.703125 204.074219 C 395.820312 205.046875 396.292969 205.847656 397.125 206.476562 C 397.949219 207.109375 398.984375 207.425781 400.226562 207.425781 C 401.429688 207.425781 402.371094 207.1875 403.046875 206.703125 C 403.726562 206.222656 404.0625 205.605469 404.0625 204.851562 C 404.0625 204.035156 403.648438 203.421875 402.824219 203.015625 C 401.992188 202.609375 400.671875 202.164062 398.863281 201.683594 C 396.996094 201.230469 395.464844 200.765625 394.269531 200.285156 C 393.078125 199.804688 392.050781 199.066406 391.1875 198.070312 C 390.332031 197.074219 389.902344 195.726562 389.902344 194.03125 C 389.902344 192.648438 390.300781 191.386719 391.097656 190.242188 C 391.902344 189.089844 393.050781 188.183594 394.539062 187.523438 C 396.035156 186.863281 397.792969 186.527344 399.808594 186.527344 C 402.792969 186.527344 405.175781 187.28125 406.953125 188.773438 C 408.734375 190.265625 409.714844 192.277344 409.898438 194.8125 L 403.835938 194.8125 C 403.746094 193.8125 403.332031 193.015625 402.597656 192.429688 C 401.859375 191.84375 400.871094 191.550781 399.628906 191.550781 C 398.484375 191.550781 397.605469 191.761719 396.988281 192.183594 C 396.371094 192.605469 396.0625 193.191406 396.0625 193.941406 C 396.0625 194.792969 396.484375 195.4375 397.328125 195.871094 C 398.167969 196.308594 399.484375 196.75 401.265625 197.203125 C 403.070312 197.65625 404.558594 198.121094 405.734375 198.601562 C 406.914062 199.085938 407.933594 199.832031 408.792969 200.847656 C 409.648438 201.859375 410.089844 203.191406 410.121094 204.851562 C 410.121094 206.296875 409.722656 207.59375 408.925781 208.746094 C 408.128906 209.890625 406.980469 210.785156 405.484375 211.429688 C 403.996094 212.078125 402.257812 212.402344 400.273438 212.402344 Z M 400.273438 212.402344 " fill-opacity="1" fill-rule="nonzero"/><path fill="rgb(100%, 100%, 100%)" d="M 418.539062 183.945312 C 417.425781 183.945312 416.496094 183.59375 415.75 182.882812 C 415.011719 182.179688 414.644531 181.300781 414.644531 180.246094 C 414.644531 179.183594 415.011719 178.300781 415.75 177.59375 C 416.496094 176.886719 417.425781 176.53125 418.539062 176.53125 C 419.65625 176.53125 420.585938 176.886719 421.324219 177.59375 C 422.0625 178.300781 422.429688 179.183594 422.429688 180.246094 C 422.429688 181.300781 422.0625 182.179688 421.324219 182.882812 C 420.585938 183.59375 419.65625 183.945312 418.539062 183.945312 Z M 421.664062 186.933594 L 421.664062 211.996094 L 415.332031 211.996094 L 415.332031 186.933594 Z M 421.664062 186.933594 " fill-opacity="1" fill-rule="nonzero"/><path fill="rgb(100%, 100%, 100%)" d="M 438.355469 206.160156 L 444.6875 186.933594 L 451.421875 186.933594 L 442.148438 211.996094 L 434.464844 211.996094 L 425.234375 186.933594 L 432.015625 186.933594 Z M 438.355469 206.160156 " fill-opacity="1" fill-rule="nonzero"/><path fill="rgb(100%, 100%, 100%)" d="M 466.128906 212.402344 C 463.710938 212.402344 461.539062 211.867188 459.605469 210.800781 C 457.679688 209.726562 456.164062 208.210938 455.058594 206.253906 C 453.957031 204.289062 453.410156 202.03125 453.410156 199.472656 C 453.410156 196.90625 453.976562 194.648438 455.101562 192.691406 C 456.238281 190.726562 457.78125 189.210938 459.742188 188.144531 C 461.703125 187.066406 463.894531 186.527344 466.308594 186.527344 C 468.722656 186.527344 470.90625 187.066406 472.863281 188.144531 C 474.828125 189.210938 476.371094 190.726562 477.5 192.691406 C 478.628906 194.648438 479.191406 196.90625 479.191406 199.472656 C 479.191406 202.03125 478.613281 204.289062 477.457031 206.253906 C 476.296875 208.210938 474.726562 209.726562 472.75 210.800781 C 470.777344 211.867188 468.570312 212.402344 466.128906 212.402344 Z M 466.128906 206.882812 C 467.269531 206.882812 468.34375 206.609375 469.355469 206.050781 C 470.371094 205.492188 471.175781 204.660156 471.78125 203.542969 C 472.382812 202.425781 472.683594 201.066406 472.683594 199.472656 C 472.683594 197.085938 472.054688 195.257812 470.796875 193.976562 C 469.550781 192.691406 468.023438 192.046875 466.21875 192.046875 C 464.402344 192.046875 462.890625 192.691406 461.671875 193.976562 C 460.453125 195.257812 459.84375 197.085938 459.84375 199.472656 C 459.84375 201.847656 460.433594 203.679688 461.625 204.964844 C 462.8125 206.246094 464.3125 206.882812 466.128906 206.882812 Z M 466.128906 206.882812 " fill-opacity="1" fill-rule="nonzero"/><path fill="rgb(100%, 100%, 100%)" d="M 493.449219 212.402344 C 491.398438 212.402344 489.550781 212.03125 487.921875 211.296875 C 486.296875 210.558594 485.003906 209.558594 484.050781 208.292969 C 483.105469 207.023438 482.585938 205.617188 482.496094 204.074219 L 488.878906 204.074219 C 489 205.046875 489.472656 205.847656 490.300781 206.476562 C 491.128906 207.109375 492.164062 207.425781 493.40625 207.425781 C 494.605469 207.425781 495.550781 207.1875 496.226562 206.703125 C 496.902344 206.222656 497.242188 205.605469 497.242188 204.851562 C 497.242188 204.035156 496.828125 203.421875 496 203.015625 C 495.171875 202.609375 493.851562 202.164062 492.039062 201.683594 C 490.171875 201.230469 488.644531 200.765625 487.449219 200.285156 C 486.257812 199.804688 485.230469 199.066406 484.367188 198.070312 C 483.511719 197.074219 483.082031 195.726562 483.082031 194.03125 C 483.082031 192.648438 483.480469 191.386719 484.277344 190.242188 C 485.082031 189.089844 486.230469 188.183594 487.71875 187.523438 C 489.214844 186.863281 490.972656 186.527344 492.988281 186.527344 C 495.972656 186.527344 498.351562 187.28125 500.128906 188.773438 C 501.914062 190.265625 502.894531 192.277344 503.074219 194.8125 L 497.015625 194.8125 C 496.925781 193.8125 496.511719 193.015625 495.773438 192.429688 C 495.035156 191.84375 494.046875 191.550781 492.808594 191.550781 C 491.664062 191.550781 490.78125 191.761719 490.167969 192.183594 C 489.550781 192.605469 489.242188 193.191406 489.242188 193.941406 C 489.242188 194.792969 489.664062 195.4375 490.503906 195.871094 C 491.347656 196.308594 492.660156 196.75 494.445312 197.203125 C 496.25 197.65625 497.738281 198.121094 498.910156 198.601562 C 500.089844 199.085938 501.113281 199.832031 501.96875 200.847656 C 502.828125 201.859375 503.269531 203.191406 503.300781 204.851562 C 503.300781 206.296875 502.898438 207.59375 502.105469 208.746094 C 501.304688 209.890625 500.160156 210.785156 498.664062 211.429688 C 497.175781 212.078125 495.4375 212.402344 493.449219 212.402344 Z M 493.449219 212.402344 " fill-opacity="1" fill-rule="nonzero"/></svg>